<?xml version="1.0" encoding="UTF-8"?>
<svg version="1.1" xmlns="http://www.w3.org/2000/svg" width="2000" height="709">
<path d="M0 0 C29.7 0 59.4 0 90 0 C87.75102375 11.24488124 87.75102375 11.24488124 85.9765625 16.0234375 C85.40421875 17.58578125 85.40421875 17.58578125 84.8203125 19.1796875 C84.42585938 20.23414062 84.03140625 21.28859375 83.625 22.375 C82.84490916 24.48644586 82.06625867 26.59842443 81.2890625 28.7109375 C80.94568848 29.63181152 80.60231445 30.55268555 80.24853516 31.50146484 C78.41525718 36.6385148 76.72482435 41.82552695 75 47 C110.64 47.33 146.28 47.66 183 48 C183 57.24 183 66.48 183 76 C143.73 76 104.46 76 64 76 C63.34 78.97 62.68 81.94 62 85 C61.54743971 86.53319023 61.06742292 88.05919057 60.53540039 89.56665039 C60.264944 90.34097916 59.99448761 91.11530792 59.71583557 91.9131012 C59.4293364 92.71650436 59.14283722 93.51990753 58.84765625 94.34765625 C58.54685654 95.20379013 58.24605682 96.05992401 57.93614197 96.94200134 C56.98308409 99.65056296 56.02283049 102.3565096 55.0625 105.0625 C54.42206999 106.8806988 53.78209222 108.69905696 53.14257812 110.51757812 C51.96235186 113.86690293 50.78141141 117.21596125 49.59399414 120.56274414 C49.35797989 121.22842911 49.12196564 121.89411407 48.87879944 122.57997131 C47.61377711 126.06357656 46.30132747 129.52979341 45 133 C94.5 133 144 133 195 133 C195 142.24 195 151.48 195 161 C115.8 161.495 115.8 161.495 35 162 C27.11532163 180.76502305 27.11532163 180.76502305 29 192 C31.84924816 196.35301803 34.09779905 198.42860385 39 200 C41.6553302 200.29837227 41.6553302 200.29837227 44.47601318 200.25828552 C45.56372009 200.26511353 46.651427 200.27194153 47.77209473 200.27897644 C49.54731506 200.27514702 49.54731506 200.27514702 51.35839844 200.27124023 C52.61263611 200.27646698 53.86687378 200.28169373 55.15911865 200.28707886 C57.88250946 200.29731944 60.60564823 200.30403681 63.3290329 200.30496025 C67.64181037 200.30690599 71.95442826 200.32498805 76.26715088 200.34571838 C86.98152277 200.39484322 97.69593802 200.42574842 108.41040039 200.44702148 C116.73443349 200.46357543 125.05832955 200.4864825 133.38227105 200.53004223 C137.66247684 200.55173207 141.94242176 200.55988452 146.22267866 200.55764949 C149.52320026 200.5597193 152.82355287 200.5811022 156.12402344 200.59936523 C157.29940674 200.59478806 158.47479004 200.59021088 159.68579102 200.585495 C167.13714605 200.65090927 174.24912489 201.1195283 180.33984375 205.796875 C185.96657969 212.67552529 187.35523743 218.04059917 186.6796875 226.86328125 C184.67470102 236.11617861 179.82581208 244.45166598 175.4375 252.75 C174.17822987 255.14960093 172.92283798 257.55122023 171.66796875 259.953125 C171.19896652 260.8495874 171.19896652 260.8495874 170.7204895 261.76416016 C167.82592903 267.30791363 165.02702461 272.89670206 162.25 278.5 C159.02110616 285.0054252 155.72653633 291.46485735 152.3125 297.875 C147.718515 306.50612333 143.35534346 315.24698661 139 324 C134.34432241 333.35660039 129.66361992 342.68926563 124.73504353 351.90618706 C121.45479038 358.07111453 118.31917968 364.30352838 115.20703125 370.5546875 C114.45178162 372.06857056 114.45178162 372.06857056 113.68127441 373.61303711 C112.45325858 376.07489911 111.22618614 378.53722631 110 381 C95.97820962 381.0937258 81.9564683 381.16385029 67.93442822 381.20724869 C61.42272734 381.22808256 54.91123759 381.25632391 48.3996582 381.30175781 C42.11024729 381.34536466 35.8210389 381.36916868 29.53148842 381.37950897 C27.13742195 381.38687368 24.74336598 381.40125501 22.34938622 381.42292023 C18.98423072 381.45215068 15.61990162 381.4559477 12.25463867 381.45410156 C11.27495621 381.46848267 10.29527374 381.48286377 9.28590393 381.49768066 C0.25123154 381.44439258 -9.04572737 379.00596273 -16 373 C-24.09809355 364.21848502 -26.90126574 352.65062994 -30.5 341.5625 C-31.19060821 339.47705925 -31.88318458 337.39226934 -32.57763672 335.30810547 C-33.64907668 332.09240046 -34.71951638 328.87641318 -35.78414917 325.65844727 C-39.44358124 314.60478137 -43.27232525 303.6124981 -47.125 292.625 C-47.73390043 290.88360662 -48.34262916 289.14215319 -48.95117188 287.40063477 C-49.5324572 285.73841083 -50.11383511 284.07621926 -50.6953125 282.4140625 C-50.971474 281.62456711 -51.2476355 280.83507172 -51.53216553 280.02165222 C-52.92915578 276.03428207 -54.33678227 272.05106682 -55.76074219 268.07324219 C-56.04150604 267.28638031 -56.3222699 266.49951843 -56.61154175 265.68881226 C-57.14391887 264.1984383 -57.67887937 262.70898379 -58.21682739 261.22061157 C-60 256.22309904 -60 256.22309904 -60 254 C-33.93 254 -7.86 254 19 254 C22.04810292 260.70582643 24.99012518 267.28524223 27.59375 274.1484375 C27.90775757 274.96768707 28.22176514 275.78693665 28.54528809 276.63101196 C29.53340061 279.21112791 30.51682054 281.79300081 31.5 284.375 C32.15723463 286.09387142 32.81478485 287.8126222 33.47265625 289.53125 C34.73733187 292.83628481 36.0003225 296.14195444 37.26171875 299.44824219 C39.49625435 305.30327947 41.74630065 311.15231305 44 317 C46.65771177 313.81762783 48.83508804 310.72612227 50.734375 307.04296875 C51.22188232 306.10340332 51.70938965 305.16383789 52.21166992 304.19580078 C52.71931885 303.20306152 53.22696777 302.21032227 53.75 301.1875 C54.28149658 300.15866699 54.81299316 299.12983398 55.3605957 298.06982422 C58.66982125 291.64783176 61.92523027 285.20007328 65.12744141 278.72412109 C67.16780526 274.61262346 69.28665965 270.55011463 71.45263672 266.50341797 C73.32078814 263.01220788 75.16568392 259.50908891 77 256 C77.48509033 255.07646729 77.48509033 255.07646729 77.97998047 254.13427734 C81.55049981 247.24841077 84.13546274 241.82207668 83 234 C81.05360529 231.57405877 80.03215212 231.01071737 77 230 C75.49158644 229.90573342 73.9793815 229.86675264 72.46803284 229.86196899 C71.07428185 229.85378899 71.07428185 229.85378899 69.65237427 229.84544373 C68.63472992 229.8444014 67.61708557 229.84335907 66.56860352 229.84228516 C64.95825981 229.83466408 64.95825981 229.83466408 63.31538391 229.82688904 C60.97948082 229.81617627 58.6435674 229.80755966 56.30764961 229.80076981 C52.60331499 229.78898106 48.89909696 229.76952513 45.19480896 229.74765015 C34.66058429 229.68605431 24.12639196 229.63210703 13.59204102 229.59863281 C7.14994935 229.57761072 0.70806743 229.54224007 -5.73390388 229.49787521 C-8.18290794 229.4837673 -10.63194913 229.47500462 -13.08099174 229.47182083 C-16.52223284 229.46687629 -19.96292452 229.44362445 -23.40405273 229.41650391 C-24.403479 229.41951004 -25.40290527 229.42251617 -26.43261719 229.4256134 C-38.20580287 229.28879461 -50.32749832 226.81356937 -58.84765625 218.11328125 C-64.20125205 211.41799805 -66.47303069 204.8996079 -66.38330078 196.3503418 C-65.58516655 189.37403859 -62.8990344 182.87315902 -60.5 176.3125 C-58.685 171.259375 -56.87 166.20625 -55 161 C-70.51 161 -86.02 161 -102 161 C-102 151.76 -102 142.52 -102 133 C-83.19 133 -64.38 133 -45 133 C-44.01 129.37 -43.02 125.74 -42 122 C-40.84860012 118.44354547 -39.67692486 114.90488019 -38.4609375 111.37109375 C-38.13461334 110.41477554 -37.80828918 109.45845734 -37.47207642 108.47315979 C-36.78961672 106.47529578 -36.10555011 104.47798001 -35.41992188 102.48120117 C-34.36733481 99.41517244 -33.31999417 96.34738865 -32.2734375 93.27929688 C-31.6070729 91.33062585 -30.94041691 89.38205443 -30.2734375 87.43359375 C-29.95990326 86.51597763 -29.64636902 85.59836151 -29.32333374 84.65293884 C-28.88750473 83.38505272 -28.88750473 83.38505272 -28.44287109 82.09155273 C-28.18766693 81.34751694 -27.93246277 80.60348114 -27.66952515 79.8368988 C-27 78 -27 78 -26 76 C-47.12 76 -68.24 76 -90 76 C-90 66.76 -90 57.52 -90 48 C-65.58 48 -41.16 48 -16 48 C-15.01 44.37 -14.02 40.74 -13 37 C-6.565 18.685 -6.565 18.685 0 0 Z " fill="#000000" transform="translate(1259,64)"/>
<path d="M0 0 C27.06 0 54.12 0 82 0 C82 15.51 82 31.02 82 47 C100.81 47 119.62 47 139 47 C139 31.49 139 15.98 139 0 C165.73 0 192.46 0 220 0 C220 15.51 220 31.02 220 47 C227.92 47 235.84 47 244 47 C244 55.91 244 64.82 244 74 C236.08 74 228.16 74 220 74 C220 114.59 220 155.18 220 197 C197.56 197 175.12 197 152 197 C152 202.94 152 208.88 152 215 C182.36 215 212.72 215 244 215 C244 224.24 244 233.48 244 243 C213.64 243 183.28 243 152 243 C152 288.21 152 333.42 152 380 C124.61 380 97.22 380 69 380 C69 334.79 69 289.58 69 243 C38.64 243 8.28 243 -23 243 C-23 233.76 -23 224.52 -23 215 C7.36 215 37.72 215 69 215 C69 209.06 69 203.12 69 197 C66.24011719 197.04640625 63.48023438 197.0928125 60.63671875 197.140625 C57.92929926 197.1719233 55.22190081 197.19615237 52.5144043 197.21972656 C50.64940193 197.23969895 48.78446102 197.26688668 46.91967773 197.30175781 C22.11714108 197.75355864 22.11714108 197.75355864 12.6875 188.8125 C5.29499626 181.65505203 0.04018399 174.12356175 -0.24050903 163.58961487 C-0.24624794 161.91855242 -0.24112371 160.24742906 -0.22705078 158.57641602 C-0.22734283 157.6585582 -0.22763489 156.74070038 -0.22793579 155.79502869 C-0.22654983 152.78122282 -0.21102324 149.76766858 -0.1953125 146.75390625 C-0.19157976 144.65640905 -0.18873402 142.5589101 -0.18673706 140.46141052 C-0.17912115 134.95573058 -0.15949021 129.45015709 -0.1373291 123.94451904 C-0.11682664 118.32044922 -0.10772594 112.6963621 -0.09765625 107.07226562 C-0.07624237 96.04812292 -0.04107688 85.02408699 0 74 C-7.59 74 -15.18 74 -23 74 C-23 65.09 -23 56.18 -23 47 C-15.41 47 -7.82 47 0 47 C0 31.49 0 15.98 0 0 Z M82 74 C82 85.22 82 96.44 82 108 C100.81 108 119.62 108 139 108 C139 96.78 139 85.56 139 74 C120.19 74 101.38 74 82 74 Z M82 136 C80.94662968 152.61501309 80.94662968 152.61501309 85 162 C89.40698978 166.31322404 93.24492569 169.2629602 99.49316406 169.22705078 C100.37377502 169.22689972 101.25438599 169.22674866 102.16168213 169.22659302 C103.10348328 169.21627045 104.04528442 169.20594788 105.015625 169.1953125 C106.47207428 169.19106766 106.47207428 169.19106766 107.95794678 169.18673706 C111.05542385 169.17555292 114.1526105 169.15045142 117.25 169.125 C119.35155832 169.11496792 121.45312118 169.10584247 123.5546875 169.09765625 C128.70332658 169.07732197 133.85133865 169.03816965 139 169 C139 158.11 139 147.22 139 136 C120.19 136 101.38 136 82 136 Z " fill="#000000" transform="translate(1701,65)"/>
<path d="M0 0 C137.61 0 275.22 0 417 0 C417 9.24 417 18.48 417 28 C363.87 28 310.74 28 256 28 C256 48.46 256 68.92 256 90 C302.53 90 349.06 90 397 90 C397 99.24 397 108.48 397 118 C350.47 118 303.94 118 256 118 C256 138.79 256 159.58 256 181 C313.09 181 370.18 181 429 181 C429 190.24 429 199.48 429 209 C371.91 209 314.82 209 256 209 C256 237.38 256 265.76 256 295 C224.65 295 193.3 295 161 295 C161 266.62 161 238.24 161 209 C103.91 209 46.82 209 -12 209 C-12 199.76 -12 190.52 -12 181 C45.09 181 102.18 181 161 181 C161 160.21 161 139.42 161 118 C114.47 118 67.94 118 20 118 C20 108.76 20 99.52 20 90 C66.53 90 113.06 90 161 90 C161 69.54 161 49.08 161 28 C107.87 28 54.74 28 0 28 C0 18.76 0 9.52 0 0 Z " fill="#000000" transform="translate(532,150)"/>
<path d="M0 0 C24.75 0 49.5 0 75 0 C75 89.76 75 179.52 75 272 C77.97 272 80.94 272 84 272 C84 199.4 84 126.8 84 52 C98.52 52 113.04 52 128 52 C129.9581542 53.9581542 129.1230384 56.96085248 129.12908131 59.56766754 C129.12616847 60.52192798 129.12325563 61.47618842 129.12025452 62.45936584 C129.12153615 63.9674783 129.12153615 63.9674783 129.12284368 65.50605768 C129.12450152 68.902575 129.11897217 72.29904381 129.11352539 75.69555664 C129.11324356 78.11931863 129.11340117 80.54308071 129.1139679 82.96684265 C129.11419621 88.19920897 129.11134486 93.43156415 129.10573006 98.66392708 C129.09761718 106.2291279 129.09500006 113.7943227 129.09374207 121.3595274 C129.09155121 133.63234785 129.08489022 145.90516167 129.07543945 158.17797852 C129.0662662 170.10278286 129.05918494 182.02758542 129.05493164 193.95239258 C129.05466892 194.68693077 129.05440619 195.42146896 129.05413551 196.17826588 C129.05283051 199.86307676 129.05156679 203.54788766 129.05032361 207.23269856 C129.03994995 237.82180379 129.02225661 268.41090098 129 299 C109.24129872 299.09359645 89.48264266 299.16405408 69.72376537 299.20724869 C60.5485968 299.22784112 51.37356627 299.255898 42.19848633 299.30175781 C34.1979951 299.34172749 26.19760389 299.36745692 18.19701558 299.37635398 C13.96388664 299.38155164 9.73104375 299.39369816 5.49800682 299.42292023 C1.50643407 299.45024983 -2.48473722 299.45840995 -6.47639465 299.45243073 C-7.93438594 299.45352318 -9.3923919 299.4613722 -10.85030174 299.4768219 C-23.90894449 299.60831481 -33.27159186 297.58973934 -42.7734375 288.359375 C-50.95565006 279.68910064 -54.4889953 271.68489365 -54.36076355 259.67955017 C-54.36332682 258.78572949 -54.3658901 257.8919088 -54.36853105 256.97100264 C-54.37344093 253.99993005 -54.3570224 251.02937474 -54.34057617 248.05834961 C-54.3397293 245.91911837 -54.34020622 243.77988625 -54.34190369 241.64065552 C-54.34276269 235.84997394 -54.32515207 230.05947965 -54.30418181 224.26884151 C-54.28539935 218.21102144 -54.28366333 212.15319686 -54.28010559 206.09535217 C-54.27078976 194.63146198 -54.24618215 183.16765784 -54.21605712 171.70380551 C-54.18249881 158.64944374 -54.16602349 145.59507781 -54.15097082 132.54068363 C-54.11963223 105.69373042 -54.06462583 78.84689514 -54 52 C-39.15 52 -24.3 52 -9 52 C-8.9906543 58.23398682 -8.98130859 64.46797363 -8.97167969 70.89086914 C-8.93794854 91.46252671 -8.88262287 112.03408401 -8.81609726 132.60566044 C-8.77628285 145.0811033 -8.74390252 157.55648287 -8.72900391 170.03198242 C-8.71599989 180.90524705 -8.68906707 191.77837254 -8.64538693 202.65155882 C-8.62274416 208.40919151 -8.60709102 214.1666524 -8.60811615 219.92433357 C-8.60886108 225.3440977 -8.59097688 230.76348165 -8.55883217 236.18314743 C-8.55031644 238.17169778 -8.54859456 240.1602907 -8.55419731 242.14885139 C-8.56083347 244.8662445 -8.5429259 247.58242667 -8.51898193 250.29969788 C-8.52674235 251.08473428 -8.53450277 251.86977069 -8.54249835 252.67859608 C-8.43246562 259.7433217 -6.05235109 263.94764891 -1 269 C-0.67 180.23 -0.34 91.46 0 0 Z " fill="#000000" transform="translate(86,102)"/>
<path d="M0 0 C21.45 0 42.9 0 65 0 C65 17.16 65 34.32 65 52 C81.24380672 51.88176515 81.24380672 51.88176515 97.48730469 51.72973633 C99.54882334 51.72096088 101.61034726 51.71331946 103.671875 51.70703125 C104.71166504 51.69168335 105.75145508 51.67633545 106.82275391 51.66052246 C119.51132842 51.65607345 130.57291124 54.5237842 140.2578125 62.96875 C149.7799074 72.66652931 150.60934545 84.42539425 150.67626953 97.42529297 C150.69811633 98.93816772 150.72146559 100.45102139 150.7461853 101.96385193 C150.8066895 106.04089065 150.84110982 110.11770574 150.86661768 114.19510031 C150.88289344 116.754918 150.90325759 119.3146748 150.92464828 121.8744545 C150.98995884 129.91978086 151.03779469 137.96495441 151.06227601 146.01050937 C151.0907146 155.23087803 151.17826525 164.44816616 151.31727898 173.66751564 C151.42159398 180.83835803 151.47067955 188.00833511 151.47992027 195.17992318 C151.48664833 199.44291904 151.51523936 203.70278918 151.60248184 207.96496201 C151.99135778 228.0222251 150.97982337 242.79757664 137.61838245 259.00066566 C135.45858672 261.66885683 133.7030323 264.46660799 131.921875 267.3984375 C131.11762085 268.65938232 131.11762085 268.65938232 130.29711914 269.94580078 C128.62527018 272.57084372 126.95921754 275.19952439 125.29296875 277.828125 C123.17435277 281.16775405 121.0314357 284.48921734 118.86328125 287.796875 C118.38729492 288.53244629 117.91130859 289.26801758 117.42089844 290.02587891 C116.54224614 291.38365253 115.6541543 292.73538381 114.75488281 294.07958984 C112.60261006 297.19265138 112.60261006 297.19265138 112.20385742 300.81079102 C113.26971856 303.74166401 114.6701838 306.39345538 116.140625 309.14453125 C116.45893784 309.7421376 116.77725067 310.33974396 117.10520935 310.95545959 C118.1486819 312.91041309 119.19901949 314.86157384 120.25 316.8125 C120.98028763 318.1752592 121.71051162 319.53805251 122.44067383 320.90087891 C127.25858275 329.871155 132.20409439 338.76280466 137.24584961 347.609375 C141.34164028 354.80411081 145.35220618 362.04229591 149.3125 369.3125 C149.88250732 370.35196777 150.45251465 371.39143555 151.03979492 372.46240234 C151.81867065 373.8983374 151.81867065 373.8983374 152.61328125 375.36328125 C153.07516846 376.21188721 153.53705566 377.06049316 154.01293945 377.93481445 C155 380 155 380 155 382 C146.3161375 382.06947174 137.63237046 382.1227967 128.94829082 382.15543652 C124.91602967 382.17110102 120.88395847 382.1923533 116.85180664 382.22631836 C112.9614608 382.25888429 109.0712978 382.27684711 105.18082619 382.28463173 C103.69562717 382.29018026 102.2104383 382.30101511 100.725317 382.31719017 C98.64697928 382.33892851 96.56939968 382.34196856 94.4909668 382.34057617 C93.30738083 382.34723801 92.12379486 382.35389984 90.90434265 382.36076355 C88 382 88 382 86.17871094 380.60327148 C84.78426233 378.70655565 83.51665238 376.78644688 82.30078125 374.76953125 C81.57084961 373.56586914 81.57084961 373.56586914 80.82617188 372.33789062 C80.0769043 371.08782227 80.0769043 371.08782227 79.3125 369.8125 C78.54583008 368.5450293 78.54583008 368.5450293 77.76367188 367.25195312 C76.50524732 365.17026017 75.25085834 363.08624508 74 361 C70.02659088 364.52883188 67.53552337 368.68911338 64.8125 373.1875 C63.92424141 374.63997434 63.03497178 376.09183103 62.14453125 377.54296875 C61.75628174 378.18258545 61.36803223 378.82220215 60.96801758 379.48120117 C60 381 60 381 59 382 C56.88318683 382.0942174 54.76319242 382.11742761 52.64428711 382.11352539 C51.98089828 382.11367142 51.31750946 382.11381744 50.63401794 382.1139679 C48.43176044 382.11326881 46.22958655 382.10547665 44.02734375 382.09765625 C42.50419664 382.09579206 40.98104893 382.09436816 39.457901 382.09336853 C35.44162349 382.08954346 31.42538192 382.07971328 27.40911865 382.06866455 C23.31376634 382.05845019 19.21840824 382.05387086 15.12304688 382.04882812 C7.08201472 382.038091 -0.95898817 382.02101472 -9 382 C-7.55805394 378.31727709 -5.93719419 374.90915571 -4.015625 371.44921875 C-3.41733887 370.3705957 -2.81905273 369.29197266 -2.20263672 368.18066406 C-1.55199985 367.01614078 -0.90111455 365.85175627 -0.25 364.6875 C0.08191345 364.09175171 0.4138269 363.49600342 0.75579834 362.88220215 C6.00440177 353.46301557 11.38227986 344.12465289 16.84179688 334.82592773 C21.04061602 327.66890405 25.1677368 320.47413365 29.25 313.25 C29.79930176 312.27901367 30.34860352 311.30802734 30.91455078 310.30761719 C32.97141937 306.66167313 32.97141937 306.66167313 35 303 C35.41491699 302.31131836 35.82983398 301.62263672 36.25732422 300.91308594 C36.50240723 300.28176758 36.74749023 299.65044922 37 299 C35.74464904 296.45182493 34.46935968 294.32507197 32.875 292 C31.93147704 290.56128176 30.99016873 289.12110933 30.05078125 287.6796875 C29.29982178 286.53838379 29.29982178 286.53838379 28.53369141 285.37402344 C25.93713289 281.3547724 23.50598238 277.23844813 21.0625 273.125 C17.06933105 266.44131567 13.05507456 259.77133256 9 253.125 C8.555354 252.3942627 8.11070801 251.66352539 7.65258789 250.91064453 C7.23098389 250.22083496 6.80937988 249.53102539 6.375 248.8203125 C6.01148438 248.22492676 5.64796875 247.62954102 5.2734375 247.01611328 C3.93812974 244.83865073 3.93812974 244.83865073 1.95047379 242.29635429 C-0.26495216 238.55222356 -0.49463217 236.55108085 -0.48101807 232.24221802 C-0.48443577 231.58780664 -0.48785347 230.93339527 -0.49137473 230.25915325 C-0.49793068 228.08002907 -0.47601804 225.90215399 -0.45410156 223.72314453 C-0.45297258 222.15577727 -0.45360794 220.5884079 -0.45587158 219.02104187 C-0.45701768 214.77547857 -0.43352551 210.53036874 -0.40557575 206.28491068 C-0.38054458 201.84465754 -0.37821875 197.40439362 -0.37347412 192.96408081 C-0.36104938 184.5599715 -0.32823458 176.1560707 -0.28807616 167.75205314 C-0.24334283 158.18259713 -0.22136749 148.61313107 -0.20129442 139.04359651 C-0.15950149 119.36227821 -0.088352 99.6811596 0 80 C-4.29 80 -8.58 80 -13 80 C-13 70.76 -13 61.52 -13 52 C-8.71 52 -4.42 52 0 52 C0 34.84 0 17.68 0 0 Z M64 80 C63.92006303 97.71681781 63.89218251 115.43293686 63.92484188 133.14990234 C63.93881958 141.37784652 63.93630488 149.60514549 63.89379883 157.83300781 C63.85675654 165.01160147 63.85184602 172.18940806 63.88417059 179.36803627 C63.90017239 183.16298375 63.90100206 186.9564569 63.86323357 190.75128174 C63.56064192 213.88708101 63.56064192 213.88708101 74 234 C83.16621023 225.18945512 85.69962881 217.66128919 85.97167969 205.06884766 C86.01945853 200.53429313 85.99906898 196.0037209 85.94287777 191.46933413 C85.9073703 187.99467353 85.91479267 184.52006267 85.9163208 181.04525757 C85.91259331 175.22006851 85.87810663 169.39572112 85.82324219 163.57080078 C85.76018145 156.85114235 85.73925686 150.13240057 85.7421844 143.4124676 C85.74489128 136.22648279 85.71712154 129.04084748 85.68039799 121.85496855 C85.67190272 119.79578145 85.66903753 117.73665127 85.66744232 115.67744827 C85.66265697 111.83623469 85.62373269 107.99577302 85.58105469 104.15478516 C85.5837738 102.45588135 85.5837738 102.45588135 85.58654785 100.72265625 C85.48193339 94.27762707 84.89190585 90.2168557 81 85 C76.68711675 81.65531503 73.27795823 79.84790232 67.8125 79.9375 C66.554375 79.958125 65.29625 79.97875 64 80 Z " fill="#000000" transform="translate(1514,63)"/>
<path d="M0 0 C29.04 0 58.08 0 88 0 C87.0598186 4.70090702 85.55367944 8.49164256 83.53515625 12.7734375 C83.18612747 13.52572632 82.83709869 14.27801514 82.47749329 15.05310059 C81.73053637 16.66223292 80.98127516 18.27029727 80.22991943 19.87738037 C78.27063163 24.06915202 76.32860884 28.26889675 74.38671875 32.46875 C74.0037262 33.29631805 73.62073364 34.12388611 73.22613525 34.97653198 C70.18160584 41.57010953 67.24048359 48.20139391 64.375 54.875 C61.29414706 62.04485829 58.11250792 69.14436561 54.77734375 76.19921875 C52.62418236 80.77207662 50.56580852 85.38719756 48.5 90 C45.27454824 97.19638962 41.99095634 104.36097621 38.640625 111.5 C36.06803443 116.98819322 33.5360882 122.49483293 31 128 C39.91 128 48.82 128 58 128 C58 211.16 58 294.32 58 380 C28.3 380 -1.4 380 -32 380 C-32 303.77 -32 227.54 -32 149 C-43.55 149 -55.1 149 -67 149 C-65.49584493 144.48753479 -63.85575299 140.2805166 -61.8671875 135.98828125 C-61.55858292 135.31551651 -61.24997833 134.64275177 -60.93202209 133.94960022 C-59.91583952 131.73592318 -58.8953834 129.5242434 -57.875 127.3125 C-57.15534864 125.74640889 -56.43603484 124.18016262 -55.71704102 122.61376953 C-54.22268534 119.35892392 -52.72688031 116.10475052 -51.22998047 112.85107422 C-48.11909148 106.08685804 -45.02334046 99.31573136 -41.92877197 92.54403687 C-40.93051139 90.35970799 -39.93183114 88.17557134 -38.93310547 85.99145508 C-34.13515515 75.49652373 -29.35560831 64.99330137 -24.58557129 54.48565674 C-20.92745267 46.4274726 -17.25921016 38.37406067 -13.57421875 30.328125 C-13.20648346 29.5249585 -12.83874817 28.72179199 -12.45986938 27.89428711 C-10.67535882 23.99715154 -8.88951938 20.10063375 -7.1015625 16.20507812 C-6.45698848 14.79819668 -5.81245511 13.39129661 -5.16796875 11.984375 C-4.729972 11.03198944 -4.729972 11.03198944 -4.28312683 10.06036377 C-2.76028508 6.73275282 -1.36070838 3.40177095 0 0 Z " fill="#000000" transform="translate(1082,64)"/>
<path d="M0 0 C31.68 0 63.36 0 96 0 C96 10.23 96 20.46 96 31 C100.44339844 30.95359375 104.88679687 30.9071875 109.46484375 30.859375 C113.02795718 30.83361593 116.59104398 30.81193729 120.15419769 30.79299927 C123.90450504 30.77195543 127.65444543 30.74387729 131.40454102 30.69824219 C135.02260999 30.65449376 138.64032514 30.63080254 142.25863838 30.62049103 C143.63284429 30.61315119 145.0070328 30.59881916 146.38108635 30.57707977 C156.43914901 30.4244063 162.92744443 31.80616871 171.375 37.125 C175.03111973 41.12932161 176.23805559 44.6809893 177 50 C176.50955871 58.78098604 172.92969676 66.40224666 169.25 74.25 C168.66578419 75.52081104 168.08288914 76.79222996 167.5012207 78.06420898 C166.28541296 80.71918414 165.06341885 83.37117226 163.83642578 86.02099609 C161.20232735 91.71695847 158.62474535 97.43834013 156.04592896 103.15948486 C155.17659619 105.08667219 154.30519354 107.01291239 153.43334961 108.93896484 C150.33587828 115.7866727 147.2635864 122.64478708 144.2265625 129.51953125 C136.30213557 147.45146886 128.22343373 165.29891718 119.90942383 183.05419922 C113.72960205 196.27797858 107.83621822 209.62136056 102 223 C91.36819749 223.09300382 80.73649302 223.16391851 70.10436535 223.20724869 C65.16651648 223.22805334 60.22894756 223.25623972 55.29125977 223.30175781 C50.51906424 223.34547105 45.74713665 223.36919057 40.97475624 223.37950897 C39.16122538 223.38685487 37.34770787 223.40119885 35.53429222 223.42292023 C22.0462099 223.57794139 10.30323922 222.77969783 0 213 C-6.57586973 206.00000556 -10.12334933 197.72189629 -13.8125 189 C-14.45210351 187.51504409 -15.09309054 186.03068344 -15.73535156 184.546875 C-17.10773052 181.37336654 -18.47382777 178.19725059 -19.83642578 175.01953125 C-22.05683575 169.85356061 -24.31913736 164.70652607 -26.58984375 159.5625 C-26.97438721 158.6910434 -27.35893066 157.81958679 -27.75512695 156.92172241 C-28.53234613 155.160431 -29.30958814 153.39914966 -30.08685303 151.63787842 C-36.00214995 138.22269146 -41.82851749 124.77682142 -47.49511719 111.25463867 C-50.36019761 104.44016378 -53.36892355 97.71737208 -56.5625 91.05078125 C-61 81.63315217 -61 81.63315217 -61 78 C-36.58 78 -12.16 78 13 78 C15.206875 83.32125 17.41375 88.6425 19.6875 94.125 C25.33290721 107.70572104 31.07811181 121.2380586 36.96166992 134.71728516 C37.46545166 135.87147949 37.9692334 137.02567383 38.48828125 138.21484375 C38.92696533 139.21636475 39.36564941 140.21788574 39.81762695 141.24975586 C40.92162252 143.81769104 41.97490279 146.39970273 43 149 C45.42743452 146.00906961 46.96965505 143.08449886 48.4609375 139.5390625 C48.92612793 138.44223145 49.39131836 137.34540039 49.87060547 136.21533203 C50.36705566 135.03052246 50.86350586 133.84571289 51.375 132.625 C52.17091718 130.74305684 52.96887051 128.86198489 53.76687622 126.98092651 C54.32274096 125.67025921 54.87796756 124.3593211 55.43258667 123.04812622 C58.53396552 115.72042305 61.70346127 108.42254141 64.875 101.125 C66.41322234 97.58324663 67.9507558 94.04124853 69.48168945 90.49633789 C70.54191117 88.05487863 71.61242136 85.62016965 72.69604492 83.18920898 C73.24661859 81.93995752 73.79715679 80.69069042 74.34765625 79.44140625 C75.0902771 77.77380249 75.0902771 77.77380249 75.84790039 76.07250977 C77.49809274 71.67164716 77.6846422 68.64035271 77 64 C75.41780862 62.11977811 74.20167131 61.10083566 72 60 C70.16310252 59.89461182 68.32239505 59.85338447 66.48251343 59.84178162 C64.72403831 59.82709839 64.72403831 59.82709839 62.93003845 59.81211853 C61.63747635 59.80636307 60.34491425 59.8006076 59.01318359 59.79467773 C57.64344485 59.7851014 56.27370908 59.77509147 54.90397644 59.76467896 C51.17902603 59.73759726 47.45406291 59.71660541 43.72906828 59.69667697 C39.83861177 59.67483752 35.94819458 59.64743886 32.05776978 59.62062073 C24.68779508 59.57066619 17.3177986 59.52573762 9.94778121 59.48259836 C1.55850939 59.43324956 -6.83072297 59.3783227 -15.21995664 59.32291877 C-32.47993606 59.20905634 -49.73995159 59.10296304 -67 59 C-67 49.76 -67 40.52 -67 31 C-44.89 31 -22.78 31 0 31 C0 20.77 0 10.54 0 0 Z " fill="#000000" transform="translate(294,222)"/>
<path d="M0 0 C51.48 0 102.96 0 156 0 C161.35773687 17.2638188 166.71384939 34.5268443 172 51.8125 C172.30660553 52.81463531 172.61321106 53.81677063 172.92910767 54.84927368 C177.98906444 71.38999684 183.03207317 87.93588632 188.06225586 104.48568726 C188.804412 106.92722236 189.54691726 109.36865138 190.28979492 111.80996704 C191.33373548 115.24143283 192.37607532 118.67338091 193.41796875 122.10546875 C193.72155807 123.10258881 194.0251474 124.09970886 194.3379364 125.12704468 C196.64317288 132.73060278 198.81637983 140.3573294 201 148 C171.3 148 141.6 148 111 148 C100.28652887 117.01571658 89.58078227 86.02981671 79 55 C78.77449463 55.60134766 78.54898926 56.20269531 78.31665039 56.82226562 C77.63079583 58.65121112 76.94492148 60.48014918 76.2590332 62.30908203 C75.44622842 64.47667201 74.63357084 66.64431719 73.82104492 68.81201172 C71.84754388 74.07644579 69.87277233 79.34037715 67.890625 84.6015625 C64.36812331 93.96021094 60.87377561 103.32848494 57.42578125 112.71484375 C57.11314835 113.56550415 56.80051544 114.41616455 56.47840881 115.29260254 C54.91106175 119.55818545 53.34601394 123.82459134 51.78442383 128.09228516 C51.20269756 129.67743118 50.62091299 131.26255582 50.0390625 132.84765625 C49.77688431 133.56654526 49.51470612 134.28543427 49.24458313 135.02610779 C48.99323105 135.70979935 48.74187897 136.39349091 48.48291016 137.09790039 C48.16055893 137.97859947 48.16055893 137.97859947 47.83169556 138.87709045 C46.62855103 141.94812645 45.29926617 144.96837894 44 148 C14.63 148 -14.74 148 -45 148 C-42.75269923 136.76349614 -42.75269923 136.76349614 -41.0390625 131.4296875 C-40.46454346 129.6209314 -40.46454346 129.6209314 -39.87841797 127.77563477 C-39.67488708 127.14247345 -39.4713562 126.50931213 -39.26165771 125.85696411 C-38.13596282 122.35258988 -37.02896296 118.84232017 -35.921875 115.33203125 C-35.68640961 114.58620285 -35.45094421 113.84037445 -35.20834351 113.07194519 C-32.33317556 103.93146876 -29.61000608 94.74565226 -26.875 85.5625 C-23.34961752 73.73903972 -19.76318246 61.9453535 -15.94799805 50.21142578 C-12.61181288 39.90970355 -9.50739962 29.53838873 -6.41162109 19.16235352 C-6.00749445 17.81526469 -5.60336066 16.468178 -5.19921875 15.12109375 C-4.84690186 13.9395874 -4.49458496 12.75808105 -4.1315918 11.54077148 C-2.88772544 7.64869084 -1.43469465 3.82585239 0 0 Z " fill="#000000" transform="translate(269,66)"/>
<path d="M0 0 C3.60989055 2.742478 6.81712987 5.77804199 10 9 C10.75539063 9.75410156 11.51078125 10.50820313 12.2890625 11.28515625 C12.85367187 11.85105469 13.41828125 12.41695312 14 13 C14.680625 11.9790625 14.680625 11.9790625 15.375 10.9375 C22.22075653 3.27677246 30.98609858 -1.71189485 41.1875 -2.875 C50.70197194 -3.38841008 59.2769227 -1.48228498 67.03125 4.20703125 C75.16851893 11.61775831 77.96692193 21.37952484 79 32 C79.08182108 34.56603204 79.11792151 37.13383944 79.11352539 39.70117188 C79.11367142 40.42410431 79.11381744 41.14703674 79.1139679 41.89187622 C79.11327838 44.25086606 79.10553163 46.60977417 79.09765625 48.96875 C79.09578865 50.61641395 79.09436636 52.26407846 79.09336853 53.91174316 C79.0895703 58.22547976 79.07976332 62.53918211 79.06866455 66.85290527 C79.05839221 71.2639113 79.05385849 75.67492293 79.04882812 80.0859375 C79.03813837 88.72397572 79.0205637 97.36197964 79 106 C72.73 106 66.46 106 60 106 C59.970271 102.85235107 59.970271 102.85235107 59.93994141 99.64111328 C59.87277017 92.67609506 59.79513596 85.71122102 59.71247292 78.74637032 C59.66271427 74.52723547 59.61638396 70.30812322 59.578125 66.08886719 C59.54101215 62.01035276 59.49458504 57.93203732 59.44193649 53.85369492 C59.42352964 52.30456947 59.4083722 50.75540159 59.39665604 49.20621109 C59.76174582 33.05054377 59.76174582 33.05054377 53 19 C47.80444847 15.19837693 42.1867066 15.24384697 36 16 C29.28269126 17.76329354 24.67377517 21.13629865 21 27 C17.28010037 35.32020533 17.5255653 44.14349055 17.48828125 53.0703125 C17.471404 54.60303151 17.45324974 56.13573693 17.43388367 57.66842651 C17.38670757 61.66971591 17.35669008 65.67095021 17.33044434 69.67242432 C17.30047378 73.76870601 17.25400086 77.86479842 17.20898438 81.9609375 C17.12332047 89.9738802 17.0573412 97.98680453 17 106 C10.73 106 4.46 106 -2 106 C-2.01458252 103.74486572 -2.02916504 101.48973145 -2.04418945 99.16625977 C-2.09467199 91.69030443 -2.16129075 84.21455439 -2.23571491 76.738801 C-2.28031963 72.20910506 -2.31959722 67.67949701 -2.34643555 63.1496582 C-2.37256774 58.77283083 -2.41303927 54.39634348 -2.46318626 50.01972771 C-2.47978823 48.35534859 -2.49134384 46.69091075 -2.49761391 45.02646065 C-2.48266849 32.70726535 -2.48266849 32.70726535 -6 21 C-10.7709696 16.34539551 -14.33766855 15.52061055 -20.84375 15.59765625 C-27.23845567 16.41282294 -33.41116717 19.16353969 -37.796875 23.96875 C-42.90436595 31.78020674 -44.0759996 40.39597179 -44.20532227 49.57788086 C-44.22526749 50.83865952 -44.24521271 52.09943817 -44.26576233 53.39842224 C-44.28273998 54.75389487 -44.29961903 56.10936875 -44.31640625 57.46484375 C-44.33700759 58.86732043 -44.35800483 60.26979135 -44.37937927 61.67225647 C-44.43427193 65.34314268 -44.48382423 69.01408184 -44.53222656 72.68505859 C-44.58268293 76.43917489 -44.63824233 80.19321538 -44.69335938 83.94726562 C-44.80053898 91.29811436 -44.90159891 98.64902755 -45 106 C-51.27 106 -57.54 106 -64 106 C-64 71.02 -64 36.04 -64 0 C-58.06 0 -52.12 0 -46 0 C-45.67 4.29 -45.34 8.58 -45 13 C-44.01 11.783125 -43.02 10.56625 -42 9.3125 C-31.66114981 -2.39107842 -14.4186232 -7.04421286 0 0 Z " fill="#000000" transform="translate(1336,538)"/>
<path d="M0 0 C20.79 0 41.58 0 63 0 C64.89365792 23.32189227 66.65962896 46.6511463 68.34341431 69.98895264 C68.57195766 73.15610258 68.80215354 76.32312556 69.03378296 79.49005127 C69.31160122 83.2907557 69.58570165 87.09171151 69.85710144 90.89287949 C69.95864452 92.30749038 70.06137001 93.72201699 70.16539001 95.13644791 C70.30986515 97.10471623 70.44932426 99.07335075 70.58862305 101.04199219 C70.6683989 102.14871277 70.74817474 103.25543335 70.83036804 104.39569092 C71.04357148 108.92579883 71 113.4648778 71 118 C50.87 118 30.74 118 10 118 C7.70074516 99.60596131 7.70074516 99.60596131 7.03857422 92.11230469 C6.92109329 90.82098129 6.92109329 90.82098129 6.80123901 89.50357056 C6.54946091 86.72659342 6.3017946 83.94927138 6.0546875 81.171875 C5.87827683 79.2056598 5.70177144 77.2394531 5.525177 75.27325439 C5.15850684 71.18234494 4.79410773 67.09124063 4.43115234 63 C3.96826286 57.78622007 3.49787893 52.57314591 3.02558708 47.36021042 C2.65988381 43.31109766 2.29906205 39.26156047 1.93957901 35.21189117 C1.76825057 33.29022327 1.59524226 31.36870429 1.42043686 29.44734955 C1.17607711 26.75536425 0.93857298 24.06285215 0.70263672 21.37011719 C0.59514099 20.21018753 0.59514099 20.21018753 0.48547363 19.02682495 C-0.06472312 12.61600502 0 6.5117534 0 0 Z " fill="#000000" transform="translate(1866,326)"/>
<path d="M0 0 C20.79 0 41.58 0 63 0 C61.85117953 20.67876852 61.85117953 20.67876852 61.06030273 29.22314453 C60.97237457 30.20113007 60.88444641 31.1791156 60.79385376 32.18673706 C60.51002402 35.33570142 60.22187395 38.48425275 59.93359375 41.6328125 C59.73296955 43.84908639 59.53262161 46.0653853 59.33253479 48.28170776 C58.81085646 54.05211081 58.28548229 59.8221713 57.75927734 65.59216309 C57.12563936 72.54896005 56.49669929 79.50618319 55.86695099 86.46333313 C54.9148548 96.97588216 53.9568774 107.48788017 53 118 C32.87 118 12.74 118 -8 118 C-6.1875 88.125 -6.1875 88.125 -5.59130859 78.32470703 C-4.74484801 64.40228766 -3.90671024 50.47956761 -3.1015625 36.5546875 C-2.90144138 33.11976044 -2.70106368 29.68484843 -2.50064087 26.24993896 C-2.37534138 24.08551983 -2.25161982 21.92100877 -2.12948608 19.75640869 C-1.96121691 16.77487201 -1.7878041 13.7936761 -1.61328125 10.8125 C-1.54163254 9.50162918 -1.54163254 9.50162918 -1.46853638 8.16427612 C-1.11379195 2.2275839 -1.11379195 2.2275839 0 0 Z " fill="#000000" transform="translate(1700,326)"/>
<path d="M0 0 C32.67 0 65.34 0 99 0 C95.6243365 10.12699049 95.6243365 10.12699049 93.97875977 14.80419922 C93.61150284 15.84913544 93.24424591 16.89407166 92.86585999 17.97067261 C92.47829025 19.07089752 92.09072052 20.17112244 91.69140625 21.3046875 C91.28341293 22.46445099 90.87541962 23.62421448 90.45506287 24.81912231 C89.59564504 27.26153992 88.73586169 29.70382894 87.87573242 32.14599609 C86.56915709 35.85609679 85.26398416 39.56668862 83.95898438 43.27734375 C83.11987551 45.66148784 82.28068546 48.04560337 81.44140625 50.4296875 C81.05586075 51.52586395 80.67031525 52.62204041 80.27308655 53.75143433 C79.90267746 54.80267487 79.53226837 55.85391541 79.15063477 56.93701172 C78.83103287 57.84474335 78.51143097 58.75247498 78.18214417 59.68771362 C76.47666478 64.46634918 74.73395519 69.23162322 73 74 C24.49 74.495 24.49 74.495 -25 75 C-23.61966491 68.78849209 -22.12717374 62.99677958 -20.05859375 57.03125 C-19.77202408 56.19323853 -19.48545441 55.35522705 -19.19020081 54.49182129 C-18.58309187 52.71951661 -17.97367335 50.94800156 -17.36206055 49.17724609 C-16.45956659 46.56389814 -15.56405667 43.94824933 -14.66992188 41.33203125 C-9.92000808 27.50003471 -4.95496758 13.76379884 0 0 Z " fill="#000000" transform="translate(811,64)"/>
<path d="M0 0 C32.34 0 64.68 0 98 0 C111.51918008 36.87049112 111.51918008 36.87049112 116.23852539 50.04272461 C116.88878837 51.854996 117.54124267 53.66648219 118.19555664 55.47729492 C119.17009376 58.1746534 120.13851129 60.87413535 121.10546875 63.57421875 C121.39906784 64.38332199 121.69266693 65.19242523 121.99516296 66.02604675 C123.10219318 69.13557882 124 71.67300785 124 75 C91.66 74.67 59.32 74.34 26 74 C17.5 50.375 17.5 50.375 14.87304688 43.07177734 C14.15496731 41.07649042 13.43686893 39.08121026 12.71875 37.0859375 C12.33150757 36.00895599 11.94426514 34.93197449 11.54528809 33.82235718 C9.58629817 28.37992539 7.61582682 22.94213774 5.62109375 17.51269531 C5.24762817 16.49422516 4.8741626 15.475755 4.48937988 14.42642212 C3.78278267 12.5020337 3.07351503 10.57862309 2.36120605 8.65634155 C2.04929321 7.80633575 1.73738037 6.95632996 1.41601562 6.08056641 C1.00397888 4.96556259 1.00397888 4.96556259 0.58361816 3.82803345 C0 2 0 2 0 0 Z " fill="#000000" transform="translate(571,64)"/>
<path d="M0 0 C2.1165659 1.92454755 4.05062577 3.9006739 6 6 C6.33 2.04 6.66 -1.92 7 -6 C12.94 -6 18.88 -6 25 -6 C25.04650956 7.18772697 25.08196337 20.37543416 25.10362434 33.5632267 C25.11402482 39.68801411 25.12811526 45.81274507 25.15087891 51.9375 C25.17274116 57.85732955 25.18459667 63.77710506 25.18975449 69.69697189 C25.19342635 71.94618962 25.200596 74.19540467 25.21146011 76.44459915 C25.39633612 116.33582691 25.39633612 116.33582691 11.18359375 130.9453125 C0.16211088 141.31615327 -13.88356949 142.40143709 -28.28125 142.21875 C-33.85346909 142.0421345 -38.8119809 141.05747082 -44 139 C-44.72316406 138.7215625 -45.44632813 138.443125 -46.19140625 138.15625 C-53.52183265 134.92919321 -58.89564968 129.46722881 -62.22265625 122.19921875 C-63.63260895 118.21025708 -64.30529406 114.16823562 -65 110 C-58.73 110 -52.46 110 -46 110 C-45.278125 111.5675 -44.55625 113.135 -43.8125 114.75 C-41.07219166 120.18456108 -38.68599122 122.88083699 -33 125.25 C-23.38423084 127.57538208 -12.61803995 126.74173797 -3.96875 121.8515625 C1.47654988 117.85988081 3.67926466 112.49161431 5 106 C5.2922572 101.30951143 5.24655081 96.691314 5 92 C4.45472656 92.39832031 3.90945313 92.79664063 3.34765625 93.20703125 C-6.10866379 99.85070225 -15.81381808 103.03482209 -27.4609375 101.5625 C-39.70025574 99.22614424 -49.21983278 95.00307214 -57 85 C-63.88898571 73.91073951 -67.19576859 61.96518508 -68 49 C-68.07927734 48.03320312 -68.07927734 48.03320312 -68.16015625 47.046875 C-68.82805699 31.83035383 -64.28224989 16.83345938 -55.23828125 4.62109375 C-40.53313339 -11.24949706 -16.71379383 -13.27552767 0 0 Z M-40.8671875 16.16015625 C-50.01380275 29.26738719 -49.60825543 46.76290961 -47.375 62.125 C-45.40767978 70.71470802 -41.58252613 79.20289163 -34 84 C-27.88256639 87.54811149 -21.98251552 87.81826354 -15 87 C-8.41736736 85.13358282 -2.31063615 81.65850724 1.40625 75.7734375 C9.46530608 60.63927987 8.79064013 42.16119562 4 26 C1.17811005 18.80573111 -3.29422928 13.38162916 -10.23828125 9.8671875 C-20.42733663 6.66779529 -33.61957391 7.7753648 -40.8671875 16.16015625 Z " fill="#000000" transform="translate(1089,544)"/>
<path d="M0 0 C2.99951718 2.55108438 4.97022044 4.79362726 7.375 8 C7.87 1.565 7.87 1.565 8.375 -5 C13.985 -5 19.595 -5 25.375 -5 C25.4680262 8.95271665 25.53893001 22.90535849 25.58224869 36.8583231 C25.60304832 43.33852217 25.63122602 49.81850774 25.67675781 56.29858398 C25.72048816 62.56207796 25.74419432 68.82536765 25.75450897 75.08900261 C25.76185175 77.46859893 25.77618931 79.84818514 25.79792023 82.22769356 C25.94904334 99.4746142 26.03680801 116.03803262 14.375 130 C3.30001441 140.8320243 -10.06113159 143.41824249 -25.0168457 143.36572266 C-36.03444276 143.14388501 -46.19895012 140.38768818 -54.625 133 C-60.85338934 126.40201393 -63.625 120.03643825 -63.625 111 C-57.355 111 -51.085 111 -44.625 111 C-44.068125 112.5675 -43.51125 114.135 -42.9375 115.75 C-40.64172785 121.43324015 -38.36789016 123.8328127 -32.6875 126.25 C-23.08886833 128.55032567 -12.24457032 127.99321387 -3.625 123 C3.25946589 117.15938814 5.49012035 110.84879654 6.375 102 C6.44825142 98.66461889 6.43540089 95.33547114 6.375 92 C5.446875 92.9075 4.51875 93.815 3.5625 94.75 C-3.672334 100.90761525 -13.24375886 103.2916448 -22.625 103 C-34.3137121 101.69568019 -45.76120515 98.27617245 -53.93359375 89.35546875 C-66.34706659 72.06834606 -68.66144726 51.85160104 -66.15625 31.12109375 C-63.76028346 19.26961642 -58.21537819 7.53517612 -48.2734375 0.28515625 C-33.1046223 -9.31862922 -14.86950059 -11.66918348 0 0 Z M-42.1875 19.7890625 C-50.07030953 31.91316629 -48.68877901 49.41520344 -46.3203125 62.9921875 C-44.35198946 71.50684337 -41.165839 79.89699014 -33.625 84.8125 C-27.00867577 88.80555505 -19.38317457 89.14472026 -11.9296875 87.3515625 C-5.02849133 84.88232717 -0.12149527 81.23386815 3.62109375 74.88671875 C10.30096431 60.3280265 9.58723337 41.78415454 4.5625 26.8125 C1.37567627 19.24524221 -1.93487288 14.34899983 -9.61328125 10.8828125 C-22.0816452 7.22801321 -34.02729014 9.62657893 -42.1875 19.7890625 Z " fill="#000000" transform="translate(495.625,543)"/>
<path d="M0 0 C5.94 0 11.88 0 18 0 C18 47.52 18 95.04 18 144 C12.39 144 6.78 144 1 144 C0.67 140.37 0.34 136.74 0 133 C-0.680625 133.721875 -1.36125 134.44375 -2.0625 135.1875 C-9.7867002 142.74052678 -17.39681947 145.77558499 -28.30859375 146.09765625 C-42.28057953 145.40995947 -52.59960032 140.8110546 -62.1875 130.8125 C-73.25962692 117.82988844 -75.80234285 99.54060644 -75 83 C-73.40166229 67.38080112 -68.46519358 53.59832212 -56.01953125 43.4609375 C-47.57478538 37.3519724 -36.41811639 33.84243151 -26 35 C-15.6036424 37.71009616 -8.58112734 42.67680954 -2 51 C-1.34 51.33 -0.68 51.66 0 52 C0 34.84 0 17.68 0 0 Z M-50.0625 62.25 C-58.33537868 76.15089652 -57.18319715 94.80338084 -54 110 C-51.57897077 118.26720119 -48.088534 124.48024607 -40.4375 128.875 C-32.84845446 132.35942061 -25.34635353 132.13458063 -17.5625 129.3125 C-13.5602245 127.49386601 -10.83341396 125.4167639 -8 122 C-7.34257813 121.23945312 -6.68515625 120.47890625 -6.0078125 119.6953125 C1.84678553 109.15120231 1.10577262 94.51444916 -0.5078125 82.08984375 C-2.49411542 71.59896799 -5.64780984 63.32764336 -13.9375 56.375 C-24.93344752 49.04436832 -41.81419697 51.9150727 -50.0625 62.25 Z " fill="#000000" transform="translate(1698,500)"/>
<path d="M0 0 C11.59684785 -0.5173315 25.28057207 2.06463149 34.09765625 10.01171875 C41.22797104 17.67569536 43.10560814 25.54722514 43.24438477 35.89599609 C43.25428436 36.54060791 43.26418396 37.18521973 43.27438354 37.84936523 C43.3057259 39.95943654 43.33064685 42.06953029 43.35546875 44.1796875 C43.3760619 45.65085401 43.39705896 47.12201492 43.41844177 48.59317017 C43.47341882 52.44984374 43.52293468 56.30656854 43.57128906 60.16333008 C43.62168295 64.10502639 43.67727529 68.04664907 43.73242188 71.98828125 C43.83970503 79.710875 43.94121519 87.43353032 44.0390625 95.15625 C49.4840625 95.65125 49.4840625 95.65125 55.0390625 96.15625 C55.0390625 100.44625 55.0390625 104.73625 55.0390625 109.15625 C36.46087809 111.18785646 36.46087809 111.18785646 28.6015625 105.34375 C26.73652807 102.73270179 25.87979746 100.23894485 25.0390625 97.15625 C24.57757812 97.53136719 24.11609375 97.90648437 23.640625 98.29296875 C12.51447652 107.02237773 0.11227758 111.91994282 -14.2734375 111.03125 C-25.03576619 109.65887252 -32.56798981 106.54919769 -40.2734375 98.84375 C-45.50937451 90.5050355 -46.25812874 81.21513233 -44.4921875 71.60546875 C-41.91774276 62.73282883 -36.74765638 57.12999981 -28.9140625 52.48046875 C-19.35750438 48.19518674 -9.44796586 47.18685767 0.8515625 46.09375 C3.08739093 45.8539641 5.32273418 45.61132322 7.55729675 45.36000061 C9.57101004 45.13374345 11.58589648 44.91799967 13.60083008 44.70288086 C16.73806635 44.20410418 19.20362807 43.56466482 22.0390625 42.15625 C24.98990397 37.98930416 24.66444364 33.04348782 24.0390625 28.15625 C21.84252333 23.68181835 19.58968889 21.17875062 15.0390625 19.15625 C5.56225639 16.16654331 -3.84431908 15.96802134 -12.9609375 20.15625 C-17.64538925 23.00765541 -19.16197692 26.02921234 -20.9609375 31.15625 C-21.2909375 32.80625 -21.6209375 34.45625 -21.9609375 36.15625 C-27.9009375 36.48625 -33.8409375 36.81625 -39.9609375 37.15625 C-39.5759656 29.55305502 -38.6060008 23.84323663 -34.9609375 17.15625 C-34.4040625 16.104375 -33.8471875 15.0525 -33.2734375 13.96875 C-26.53109485 5.76860353 -16.0837103 1.90555262 -5.7734375 0.40625 C-3.84833435 0.28001373 -1.92314215 0.15323842 0 0 Z M17.59375 58.14453125 C16.68882813 58.354729 15.78390625 58.56492676 14.8515625 58.78149414 C13.8821875 59.00828857 12.9128125 59.23508301 11.9140625 59.46875 C3.75805088 61.36866948 -4.37160699 63.01382106 -12.6484375 64.28515625 C-17.26766175 65.4998815 -20.42333698 67.64784442 -23.8125 70.97265625 C-25.4425847 74.07203498 -25.35823728 76.61126801 -25.3359375 80.09375 C-25.34367187 81.29902344 -25.35140625 82.50429688 -25.359375 83.74609375 C-24.83027128 88.27459914 -23.37277055 90.92089608 -19.9609375 93.90625 C-13.5252645 97.92854563 -4.62657217 96.79927195 2.53515625 95.54296875 C10.03781655 93.5369571 16.27858097 90.46234242 21.0390625 84.15625 C24.16375562 78.25490075 24.4232291 72.72188896 24.2265625 66.15625 C24.21302734 65.28613281 24.19949219 64.41601562 24.18554688 63.51953125 C24.15057928 61.39816373 24.0967878 59.27712026 24.0390625 57.15625 C21.74301436 57.15625 19.83142636 57.6181895 17.59375 58.14453125 Z " fill="#000000" transform="translate(1902.9609375,534.84375)"/>
<path d="M0 0 C12.84503127 -0.55118604 25.87381145 2.84151874 35.4921875 11.515625 C40.8579708 17.24911426 42.14038598 23.17925807 42.22070312 30.80883789 C42.23314308 31.79734993 42.23314308 31.79734993 42.24583435 32.80583191 C42.26318686 34.23209849 42.27836663 35.6583928 42.29161072 37.08470345 C42.31269941 39.34165363 42.33971555 41.59846433 42.36828613 43.85533142 C42.43799711 49.45851667 42.49752221 55.06180178 42.55731201 60.6651001 C42.60825976 65.40442821 42.66308372 70.1436803 42.72312927 74.88290215 C42.74969143 77.10697543 42.77051044 79.33105594 42.7911377 81.55519104 C42.80774062 82.91708723 42.82461245 84.27898017 42.84179688 85.64086914 C42.85432495 86.83015518 42.86685303 88.01944122 42.87976074 89.24476624 C42.9047376 92.22490691 42.9047376 92.22490691 44.03125 95.16015625 C47.66125 95.16015625 51.29125 95.16015625 55.03125 95.16015625 C55.03125 99.78015625 55.03125 104.40015625 55.03125 109.16015625 C37.27866235 110.91942169 37.27866235 110.91942169 31.03125 107.16015625 C27.75205435 104.3245233 25.91326611 101.41404645 25.03125 97.16015625 C24.56976562 97.53527344 24.10828125 97.91039062 23.6328125 98.296875 C11.44732617 107.85742455 -2.26763231 112.54901353 -17.90234375 110.7265625 C-26.74660917 109.09290838 -34.02273738 106.10184551 -39.96875 99.16015625 C-45.62010677 90.3709822 -46.11374286 80.78580869 -44.578125 70.55859375 C-42.58838216 63.33939858 -37.72047241 57.56946548 -31.46875 53.5546875 C-24.29289621 49.82455618 -17.05313343 47.98295961 -9.0234375 47.16015625 C-7.51952874 46.99351221 -6.01562257 46.82684485 -4.51171875 46.66015625 C-2.17061609 46.40818136 0.17072922 46.1586198 2.51220703 45.91015625 C4.79267738 45.66604151 7.07209063 45.4133995 9.3515625 45.16015625 C10.39547653 45.05380859 10.39547653 45.05380859 11.46047974 44.9453125 C15.27391224 44.51930764 18.5988716 43.91421722 22.03125 42.16015625 C24.37104912 38.26049105 24.48517519 34.62375396 24.03125 30.16015625 C22.90666103 26.12975013 21.51467366 23.1232746 17.9375 20.80078125 C9.42395344 16.88454983 0.2922203 15.62298006 -8.78125 18.41015625 C-14.03699792 20.41234593 -17.11124872 22.47577873 -19.71875 27.59765625 C-21.12671651 31.34504234 -21.12671651 31.34504234 -21.96875 36.16015625 C-27.90875 36.16015625 -33.84875 36.16015625 -39.96875 36.16015625 C-39.4004085 26.21418007 -37.41289029 17.28063827 -29.96875 10.16015625 C-20.72247528 3.45207459 -11.22195422 0.91289707 0 0 Z M19.84375 57.5078125 C12.64121684 60.24406897 4.87343795 61.00083103 -2.703125 62.17773438 C-11.10078132 63.56983513 -19.4173047 65.05430626 -24.96875 72.16015625 C-27.31838396 77.83843833 -26.21223645 84.65341679 -23.96875 90.16015625 C-20.59103844 93.91531982 -17.15708052 95.98025307 -12.0703125 96.3984375 C-0.66865638 96.64184364 9.55628005 95.16374897 18.34765625 87.4296875 C23.48503903 80.50435248 24.60436116 74.06689685 24.28125 65.59765625 C24.26320313 64.68435547 24.24515625 63.77105469 24.2265625 62.83007812 C24.17997701 60.60562111 24.11460485 58.38348658 24.03125 56.16015625 C22.60797945 56.09525308 22.60797945 56.09525308 19.84375 57.5078125 Z " fill="#000000" transform="translate(763.96875,534.83984375)"/>
<path d="M0 0 C0.86625 0.556875 1.7325 1.11375 2.625 1.6875 C11.25571011 10.09108616 15.51477855 20.21091135 18.25 31.6875 C18.4255542 32.39326172 18.6011084 33.09902344 18.78198242 33.82617188 C20.41265368 41.19506085 20 46.98925905 20 55 C-5.08 55 -30.16 55 -56 55 C-54.27304836 69.98011617 -54.27304836 69.98011617 -46.1875 81.9375 C-37.13986108 87.79185459 -27.61295636 88.6053847 -17.0546875 86.37890625 C-7.21446056 82.99350707 -3.49951202 75.99902404 1 67 C6.94 67 12.88 67 19 67 C17.03302502 78.99854735 11.42917887 88.2895982 2 96 C-9.65313189 103.72486332 -26.02031539 104.32206869 -39.4375 101.875 C-51.60678219 99.38713656 -60.83540664 94.03773682 -67.75 83.6875 C-70.62689188 78.9184242 -72.68978559 74.40694115 -74 69 C-74.20367188 68.18273437 -74.40734375 67.36546875 -74.6171875 66.5234375 C-78.41837995 48.8713246 -76.28822306 27.92881738 -66.40234375 12.5078125 C-58.2969217 1.54056717 -48.75825184 -4.60075173 -35.3125 -7.3125 C-22.47359004 -9.21999519 -10.98204213 -7.18493854 0 0 Z M-49 19 C-53.46788733 25.60849073 -56 31.93905439 -56 40 C-36.86 40 -17.72 40 2 40 C-1.33797788 23.87715571 -1.33797788 23.87715571 -12 13 C-23.61226316 5.89045112 -39.87183145 9.44726548 -49 19 Z " fill="#000000" transform="translate(1549,543)"/>
<path d="M0 0 C8.02473792 5.68491153 12.17982802 14.03140971 13.90185547 23.50683594 C15.16044498 31.46705511 15.05903143 39.39063248 15.00390625 47.421875 C15.00016689 49.04140039 14.99732429 50.66092807 14.99533081 52.28045654 C14.98776691 56.50212062 14.96818248 60.72364272 14.94592285 64.94525146 C14.92530654 69.26947104 14.91629565 73.59371399 14.90625 77.91796875 C14.88492824 86.37246762 14.84980701 94.82682468 14.80859375 103.28125 C8.53859375 103.28125 2.26859375 103.28125 -4.19140625 103.28125 C-4.20598877 101.05117188 -4.22057129 98.82109375 -4.2355957 96.5234375 C-4.28605035 89.13528401 -4.35266438 81.74733887 -4.42712116 74.35939026 C-4.47174935 69.88235289 -4.5110219 65.40540493 -4.5378418 60.92822266 C-4.56395041 56.60326784 -4.60440565 52.27865851 -4.65459251 47.95391846 C-4.6712103 46.30825108 -4.68275615 44.66252402 -4.68902016 43.01678467 C-4.69871711 40.70223212 -4.72684085 38.38855334 -4.7590332 36.07421875 C-4.77013626 34.7596167 -4.78123932 33.44501465 -4.79267883 32.09057617 C-5.53631528 24.98608909 -7.5997953 19.91819567 -13.19140625 15.28125 C-18.5361871 11.88546082 -25.12310659 12.73196426 -31.19140625 13.28125 C-34.74030245 14.26089322 -37.92167731 15.60352392 -41.19140625 17.28125 C-42.25488281 17.71824219 -42.25488281 17.71824219 -43.33984375 18.1640625 C-45.68558534 19.57942557 -46.17091501 20.76403827 -47.19140625 23.28125 C-47.70380859 24.40080078 -47.70380859 24.40080078 -48.2265625 25.54296875 C-48.56558594 26.34347656 -48.90460938 27.14398437 -49.25390625 27.96875 C-49.59550781 28.75636719 -49.93710937 29.54398438 -50.2890625 30.35546875 C-52.86599426 38.71097475 -52.39547824 47.84753417 -52.5078125 56.50390625 C-52.52842867 57.85868394 -52.5494262 59.21345587 -52.57078552 60.56822205 C-52.62552551 64.10427132 -52.67514314 67.64037391 -52.72363281 71.17651367 C-52.77420288 74.79675951 -52.82970206 78.41692959 -52.88476562 82.03710938 C-52.99175755 89.11842486 -53.09287251 96.19981102 -53.19140625 103.28125 C-59.46140625 103.28125 -65.73140625 103.28125 -72.19140625 103.28125 C-72.19140625 68.30125 -72.19140625 33.32125 -72.19140625 -2.71875 C-65.92140625 -2.71875 -59.65140625 -2.71875 -53.19140625 -2.71875 C-52.86140625 1.24125 -52.53140625 5.20125 -52.19140625 9.28125 C-51.53140625 8.58 -50.87140625 7.87875 -50.19140625 7.15625 C-36.11908357 -6.64244418 -17.60902663 -9.66482958 0 0 Z " fill="#000000" transform="translate(354.19140625,540.71875)"/>
<path d="M0 0 C6.6 0 13.2 0 20 0 C23.80478581 8.95905231 26.7374242 18.16637951 29.71548462 27.42364502 C31.25719273 32.21456387 32.81114506 37.00151416 34.36328125 41.7890625 C34.67184555 42.74183075 34.98040985 43.694599 35.29832458 44.67623901 C37.89384331 52.68659489 40.51245574 60.68903518 43.16693115 68.68005371 C43.59588423 69.97238791 44.02366751 71.265111 44.45025635 72.55822754 C45.03287031 74.32365798 45.61981714 76.08765682 46.20703125 77.8515625 C46.5316333 78.82947754 46.85623535 79.80739258 47.19067383 80.81494141 C47.80725875 82.94641996 47.80725875 82.94641996 49 84 C49.3717334 82.79915771 49.7434668 81.59831543 50.12646484 80.36108398 C62.65250931 39.91549387 62.65250931 39.91549387 68.6875 21.1875 C69.08437012 19.95249756 69.48124023 18.71749512 69.89013672 17.44506836 C70.26025879 16.30175049 70.63038086 15.15843262 71.01171875 13.98046875 C71.32584717 13.01004639 71.63997559 12.03962402 71.96362305 11.03979492 C73.22800946 7.33122596 74.62423416 3.66870892 76 0 C82.6 0 89.2 0 96 0 C95.1702143 4.1489285 94.13298348 7.65637277 92.69140625 11.60546875 C92.33432587 12.58919212 92.33432587 12.58919212 91.97003174 13.5927887 C91.17089252 15.79226889 90.36675781 17.98988678 89.5625 20.1875 C88.37877514 23.43567682 87.19721929 26.68464139 86.015625 29.93359375 C85.6992659 30.80235138 85.3829068 31.67110901 85.05696106 32.56619263 C82.50368506 39.58723857 79.99003539 46.62199778 77.484375 53.66015625 C76.3119486 56.94527483 75.13896221 60.23019293 73.96578979 63.51504517 C73.21068867 65.63308873 72.45761883 67.75185783 71.70681763 69.87142944 C67.66114011 81.28711233 63.44902534 92.60401018 58.80859375 103.79296875 C58.41396439 104.74713684 58.01933502 105.70130493 57.61274719 106.68438721 C44.23470346 138.47831034 44.23470346 138.47831034 34 144.875 C25.73921862 147.84371831 17.24894161 147.35684046 9 145 C9 139.39 9 133.78 9 128 C11.64 128.66 14.28 129.32 17 130 C21.08056577 130.6428752 24.06955246 130.62029836 27.625 128.25 C32.98626765 121.8493029 36.97477303 113.40559259 37 105 C36.3734201 101.84677621 35.29743755 98.92382423 34.16015625 95.921875 C33.84685364 95.05327347 33.53355103 94.18467194 33.21075439 93.28974915 C32.1773992 90.43702251 31.12013478 87.59380441 30.0625 84.75 C29.33525083 82.75635432 28.60960737 80.76212223 27.88549805 78.76733398 C26.37375482 74.61142279 24.85215591 70.4593232 23.32226562 66.31005859 C21.04334953 60.12683355 18.79152444 53.9340157 16.546875 47.73828125 C14.15712537 41.14469202 11.76372941 34.55250292 9.35826111 27.96463013 C8.17495667 24.72303701 6.99425396 21.4805018 5.81451416 18.23760986 C5.27755474 16.76249038 4.73977263 15.28767007 4.20111084 13.81317139 C3.47858346 11.83360409 2.76014641 9.85260428 2.04296875 7.87109375 C1.64489014 6.77595459 1.24681152 5.68081543 0.83666992 4.55249023 C0 2 0 2 0 0 Z " fill="#000000" transform="translate(574,538)"/>
<path d="M0 0 C7.24434402 5.72057825 10.77582075 13.7360194 12.19140625 22.73046875 C12.27878394 25.34655525 12.31797783 27.93472664 12.30493164 30.55004883 C12.30507767 31.32131104 12.30522369 32.09257324 12.30537415 32.88720703 C12.30468003 35.42483375 12.29691117 37.96238617 12.2890625 40.5 C12.28719654 42.26405294 12.28577348 44.02810639 12.28477478 45.79216003 C12.28096363 50.42651815 12.27114534 55.06084474 12.2600708 59.69519043 C12.24982651 64.42764866 12.2452707 69.160112 12.24023438 73.89257812 C12.22952179 83.17189105 12.21193637 92.45117234 12.19140625 101.73046875 C6.25140625 101.73046875 0.31140625 101.73046875 -5.80859375 101.73046875 C-5.82317627 99.5714502 -5.83775879 97.41243164 -5.8527832 95.18798828 C-5.90331013 88.02336323 -5.96993622 80.85895139 -6.04430866 73.69453621 C-6.08887618 69.35431938 -6.12816159 65.01419348 -6.1550293 60.67382812 C-6.18119909 56.47853722 -6.2216961 52.28359881 -6.27178001 48.08852768 C-6.28835686 46.49475391 -6.29992794 44.90091929 -6.30620766 43.30707169 C-6.1305375 28.65324736 -6.1305375 28.65324736 -12.18359375 15.73046875 C-18.76755513 10.71411722 -25.8225254 11.00365676 -33.80859375 11.73046875 C-39.60671641 13.33508472 -45.56854261 16.29206857 -48.92578125 21.4453125 C-54.14303467 31.0610533 -54.13443906 41.1428544 -54.22265625 51.828125 C-54.24140005 53.27258877 -54.26097576 54.71704196 -54.28134155 56.16148376 C-54.3323301 59.93425209 -54.37213215 63.70705579 -54.40948486 67.47998047 C-54.4497351 71.34155791 -54.50073073 75.20299247 -54.55078125 79.06445312 C-54.64714571 86.61970033 -54.73067951 94.17500462 -54.80859375 101.73046875 C-61.07859375 101.73046875 -67.34859375 101.73046875 -73.80859375 101.73046875 C-73.80859375 66.75046875 -73.80859375 31.77046875 -73.80859375 -4.26953125 C-67.86859375 -4.26953125 -61.92859375 -4.26953125 -55.80859375 -4.26953125 C-55.47859375 0.02046875 -55.14859375 4.31046875 -54.80859375 8.73046875 C-54.02484375 7.69921875 -53.24109375 6.66796875 -52.43359375 5.60546875 C-39.07812566 -10.0340699 -16.54760058 -10.75726844 0 0 Z " fill="#000000" transform="translate(948.80859375,542.26953125)"/>
<path d="M0 0 C6.93 0 13.86 0 21 0 C21 41.58 21 83.16 21 126 C44.76 126 68.52 126 93 126 C93 131.94 93 137.88 93 144 C62.31 144 31.62 144 0 144 C0 96.48 0 48.96 0 0 Z " fill="#000000" transform="translate(50,500)"/>
<path d="M0 0 C6.27 0 12.54 0 19 0 C20 1 20 1 20.12304783 2.76287174 C20.12166514 3.92294821 20.12166514 3.92294821 20.12025452 5.10646057 C20.12162918 5.99132141 20.12300385 6.87618225 20.12442017 7.78785706 C20.12082489 8.76608932 20.11722961 9.74432159 20.11352539 10.75219727 C20.11367142 11.7764682 20.11381744 12.80073914 20.1139679 13.85604858 C20.11326828 17.25952229 20.10547363 20.66294204 20.09765625 24.06640625 C20.09579224 26.41910268 20.09436826 28.7717995 20.09336853 31.12449646 C20.08954199 37.33056705 20.07971055 43.5366144 20.06866455 49.74267578 C20.05845334 56.06998378 20.05387154 62.39729552 20.04882812 68.72460938 C20.0380884 81.14975146 20.02049051 93.57487017 20 106 C13.4 106 6.8 106 0 106 C0 71.02 0 36.04 0 0 Z " fill="#000000" transform="translate(199,538)"/>
<path d="M0 0 C6.27 0 12.54 0 19 0 C19 34.98 19 69.96 19 106 C12.73 106 6.46 106 0 106 C0 71.02 0 36.04 0 0 Z " fill="#000000" transform="translate(1780,538)"/>
<path d="M0 0 C6.6 0 13.2 0 20 0 C20.020625 3.279375 20.04125 6.55875 20.0625 9.9375 C20.071604 10.97253662 20.08070801 12.00757324 20.09008789 13.07397461 C20.09258545 13.88358643 20.09508301 14.69319824 20.09765625 15.52734375 C20.10551147 16.77632446 20.10551147 16.77632446 20.11352539 18.05053711 C20 20 20 20 19 21 C17.58429877 21.08651611 16.164405 21.10704904 14.74609375 21.09765625 C13.9770874 21.09515869 13.20808105 21.09266113 12.41577148 21.09008789 C11.43294189 21.08098389 10.4501123 21.07187988 9.4375 21.0625 C4.7659375 21.0315625 4.7659375 21.0315625 0 21 C0 14.07 0 7.14 0 0 Z " fill="#000000" transform="translate(199,500)"/>
<path d="M0 0 C6.27 0 12.54 0 19 0 C19 6.93 19 13.86 19 21 C12.73 21 6.46 21 0 21 C0 14.07 0 7.14 0 0 Z " fill="#000000" transform="translate(1780,500)"/>
</svg>
