<?xml version="1.0" encoding="UTF-8"?>
<svg version="1.1" xmlns="http://www.w3.org/2000/svg" width="1200" height="1200">
<path d="M0 0 C0.95708359 0.00222061 1.91416718 0.00444122 2.9002533 0.00672913 C3.98129837 0.00680466 5.06234344 0.00688019 6.17614746 0.00695801 C7.94018166 0.01469994 7.94018166 0.01469994 9.73985291 0.02259827 C10.93702438 0.02401321 12.13419586 0.02542816 13.36764526 0.02688599 C17.20918732 0.03250472 21.05067208 0.04506041 24.89219666 0.05775452 C27.48920102 0.0627671 30.0862063 0.06733043 32.68321228 0.07142639 C39.06539344 0.08248024 45.44754096 0.0992366 51.82969666 0.12025452 C49.63403843 10.00071652 46.17333329 19.56700698 42.82969666 29.12025452 C74.50969666 29.61525452 74.50969666 29.61525452 106.82969666 30.12025452 C106.82969666 35.73025452 106.82969666 41.34025452 106.82969666 47.12025452 C83.39969666 47.12025452 59.96969666 47.12025452 35.82969666 47.12025452 C34.83969666 50.75025452 33.84969666 54.38025452 32.82969666 58.12025452 C30.18969666 65.38025452 27.54969666 72.64025452 24.82969666 80.12025452 C68.88469666 80.61525452 68.88469666 80.61525452 113.82969666 81.12025452 C113.82969666 86.73025452 113.82969666 92.34025452 113.82969666 98.12025452 C82.14969666 98.12025452 50.46969666 98.12025452 17.82969666 98.12025452 C17.49969666 100.10025452 17.16969666 102.08025452 16.82969666 104.12025452 C16.47907166 104.92462952 16.12844666 105.72900452 15.76719666 106.55775452 C14.53549345 109.92440993 14.50611762 112.56088515 14.82969666 116.12025452 C16.10233338 118.53826428 16.87254569 119.77300502 19.46339417 120.71295166 C22.78661159 121.28496473 26.07937247 121.26458603 29.4405365 121.26210022 C30.20201492 121.26557465 30.96349335 121.26904907 31.74804688 121.27262878 C33.3985916 121.27996925 35.04914609 121.28532372 36.69970322 121.28891945 C39.31453654 121.29610142 41.929184 121.31178041 44.54396057 121.33026123 C51.97739637 121.38265298 59.41072855 121.43070865 66.84434509 121.44618225 C71.39438531 121.45627362 75.9439547 121.48562432 80.49380875 121.52750206 C82.2248694 121.53979756 83.95599658 121.54493596 85.68709946 121.54270363 C88.11193211 121.54034582 90.53541748 121.56255068 92.96006775 121.59022522 C94.02634651 121.5803231 94.02634651 121.5803231 95.11416626 121.57022095 C100.12342362 121.66382861 102.96739936 122.98421974 106.82969666 126.12025452 C109.80829225 130.25185485 110.13311893 133.39573208 109.48765564 138.40174866 C108.09615931 144.15102943 105.11958297 149.28446979 102.39219666 154.49525452 C101.74567596 155.75604558 101.10034388 157.01744681 100.4561615 158.2794342 C96.6425927 165.72702524 92.74922832 173.13445431 88.80943298 180.51600647 C86.08193841 185.65358834 83.45814698 190.83793328 80.86875916 196.04603577 C80.51697601 196.7531369 80.16519287 197.46023804 79.80274963 198.18876648 C78.04116363 201.73279009 76.28548409 205.27960405 74.53721619 208.83021545 C73.87960125 210.1574134 73.2218903 211.48456377 72.56407166 212.81166077 C71.98882751 213.97898743 71.41358337 215.14631409 70.82090759 216.34901428 C70.50409027 216.93312073 70.18727295 217.51722717 69.8608551 218.11903381 C68.75136697 220.19263931 68.75136697 220.19263931 67.77973938 222.76112366 C66.40243832 225.75798157 65.20585426 227.82061707 62.82969666 230.12025452 C57.94802415 231.55918415 53.12798938 231.38508724 48.08750916 231.23744202 C46.63553062 231.2289295 45.18352477 231.22428328 43.73152161 231.22331238 C40.69250969 231.2110039 37.65645999 231.16575817 34.61827087 231.09437561 C30.74222813 231.00398472 26.86886842 230.9743318 22.99186897 230.96690178 C19.99401348 230.95799944 16.99671003 230.92731214 13.99909592 230.88914871 C12.57113516 230.87150606 11.14311681 230.85798774 9.71507645 230.84882736 C-0.03034149 230.75991774 -6.84980593 230.33234288 -13.96278381 223.39784241 C-16.51880741 219.60281733 -18.02263659 215.98632077 -19.49061584 211.67884827 C-19.78171234 210.85734787 -20.07280884 210.03584747 -20.37272644 209.18945312 C-21.31927498 206.50439315 -22.24591745 203.81301787 -23.17030334 201.12025452 C-23.81941322 199.25182199 -24.46883104 197.38349642 -25.11854553 195.51527405 C-26.77991676 190.71845023 -28.42050192 185.91481442 -30.05213928 181.10780334 C-31.06240705 178.13238099 -32.07706361 175.15847947 -33.09217834 172.18470764 C-33.74086983 170.27919513 -34.3893169 168.37359939 -35.03749084 166.46791077 C-35.48896988 165.1446151 -35.48896988 165.1446151 -35.9495697 163.79458618 C-36.36603256 162.56565895 -36.36603256 162.56565895 -36.79090881 161.31190491 C-37.03404816 160.59643997 -37.2771875 159.88097504 -37.5276947 159.14382935 C-38.15759653 157.16026829 -38.66554418 155.13929116 -39.17030334 153.12025452 C-23.33030334 153.45025452 -7.49030334 153.78025452 8.82969666 154.12025452 C11.3948816 159.25062441 13.63750108 163.94106632 15.62657166 169.24525452 C15.86506836 169.87762024 16.10356506 170.50998596 16.34928894 171.16151428 C17.09680001 173.14627022 17.83835469 175.13318724 18.57969666 177.12025452 C19.0910196 178.48108039 19.60273525 179.84175877 20.11485291 181.20228577 C21.35766578 184.5065874 22.59515413 187.81285266 23.82969666 191.12025452 C26.62425721 185.82201336 26.62425721 185.82201336 29.41148376 180.51991272 C31.96578628 175.65251516 34.53623254 170.79462151 37.13047791 165.94837952 C38.21784836 163.90157404 39.30509029 161.85470027 40.39219666 159.80775452 C40.91652283 158.83636536 41.440849 157.8649762 41.98106384 156.864151 C45.55179655 150.34583794 45.55179655 150.34583794 46.82969666 143.12025452 C46.16969666 142.13025452 45.50969666 141.14025452 44.82969666 140.12025452 C41.93729359 139.65487472 41.93729359 139.65487472 38.4874115 139.71961975 C37.83672699 139.71264069 37.18604248 139.70566162 36.51564026 139.69847107 C34.35717463 139.67842414 32.19918484 139.6789942 30.04063416 139.67884827 C28.53806774 139.66707623 27.03551302 139.65371242 25.53297424 139.63882446 C21.56747856 139.60255657 17.60208633 139.58242187 13.63645935 139.567276 C7.31056404 139.54250717 0.98489804 139.50248455 -5.34078598 139.44537544 C-7.54309788 139.42915226 -9.74519147 139.42527705 -11.94755554 139.42236328 C-21.4451498 139.37343219 -29.43593552 139.27259256 -37.17030334 133.12025452 C-41.54745083 128.15160062 -42.61260763 125.16096655 -42.60389709 118.62806702 C-41.71450738 111.43282413 -38.75719669 104.85695595 -36.17030334 98.12025452 C-45.41030334 98.12025452 -54.65030334 98.12025452 -64.17030334 98.12025452 C-64.17030334 92.51025452 -64.17030334 86.90025452 -64.17030334 81.12025452 C-52.95030334 80.79025452 -41.73030334 80.46025452 -30.17030334 80.12025452 C-24.72530334 64.28025452 -24.72530334 64.28025452 -19.17030334 48.12025452 C-31.71030334 47.79025452 -44.25030334 47.46025452 -57.17030334 47.12025452 C-57.17030334 41.51025452 -57.17030334 35.90025452 -57.17030334 30.12025452 C-42.32030334 30.12025452 -27.47030334 30.12025452 -12.17030334 30.12025452 C-11.51030334 27.15025452 -10.85030334 24.18025452 -10.17030334 21.12025452 C-9.64414962 19.3689164 -9.0866895 17.62621068 -8.47889709 15.90150452 C-8.17403381 15.03267639 -7.86917053 14.16384827 -7.55506897 13.26869202 C-7.08617249 11.95771545 -7.08617249 11.95771545 -6.60780334 10.62025452 C-6.2913385 9.71533264 -5.97487366 8.81041077 -5.64881897 7.87806702 C-2.92032355 0.16181245 -2.92032355 0.16181245 0 0 Z " fill="#211C19" transform="translate(758.1703033447266,423.87974548339844)"/>
<path d="M0 0 C16.5 0 33 0 50 0 C50 9.24 50 18.48 50 28 C61.22 28 72.44 28 84 28 C84 18.76 84 9.52 84 0 C100.17 0 116.34 0 133 0 C133 9.24 133 18.48 133 28 C137.62 28 142.24 28 147 28 C147 33.61 147 39.22 147 45 C142.38 45 137.76 45 133 45 C133 69.09 133 93.18 133 118 C119.47 118 105.94 118 92 118 C92 121.3 92 124.6 92 128 C110.15 128 128.3 128 147 128 C147 133.94 147 139.88 147 146 C128.85 146 110.7 146 92 146 C92 173.06 92 200.12 92 228 C75.5 228 59 228 42 228 C42 200.94 42 173.88 42 146 C23.85 146 5.7 146 -13 146 C-13 140.06 -13 134.12 -13 128 C5.15 128 23.3 128 42 128 C42 124.7 42 121.4 42 118 C41.24380371 118.01571045 40.48760742 118.0314209 39.70849609 118.04760742 C36.26407424 118.11018047 32.81977226 118.14906205 29.375 118.1875 C28.18519531 118.21263672 26.99539063 118.23777344 25.76953125 118.26367188 C18.09990295 118.3279425 13.29397183 117.90183233 7.375 112.6875 C2.07199961 106.6867364 -0.13167373 102.40974752 -0.11352539 94.49707031 C-0.11344986 93.39623108 -0.11337433 92.29539185 -0.11329651 91.16119385 C-0.10813522 89.97878113 -0.10297394 88.79636841 -0.09765625 87.578125 C-0.0962413 86.36300232 -0.09482635 85.14787964 -0.09336853 83.89593506 C-0.08776988 80.01393169 -0.0752176 76.13198594 -0.0625 72.25 C-0.05748483 69.61849042 -0.05292195 66.98697993 -0.04882812 64.35546875 C-0.03780088 57.90362362 -0.02053714 51.45182158 0 45 C-4.29 45 -8.58 45 -13 45 C-13 39.39 -13 33.78 -13 28 C-8.71 28 -4.42 28 0 28 C0 18.76 0 9.52 0 0 Z M50 45 C50 51.27 50 57.54 50 64 C61.22 64 72.44 64 84 64 C84 57.73 84 51.46 84 45 C72.78 45 61.56 45 50 45 Z M50 82 C48.91704484 93.04959404 48.91704484 93.04959404 52.375 97.6875 C56.22783357 101.08166291 58.04017422 101.1213076 63.1015625 101.09765625 C64.91914062 101.09282227 64.91914062 101.09282227 66.7734375 101.08789062 C68.04445313 101.07951172 69.31546875 101.07113281 70.625 101.0625 C72.543125 101.05573242 72.543125 101.05573242 74.5 101.04882812 C77.66668645 101.03701213 80.83334896 101.01907621 84 101 C84 94.73 84 88.46 84 82 C72.78 82 61.56 82 50 82 Z " fill="#211C19" transform="translate(1020,426)"/>
<path d="M0 0 C82.5 0 165 0 250 0 C250 5.61 250 11.22 250 17 C218.32 17 186.64 17 154 17 C154 29.21 154 41.42 154 54 C181.72 54 209.44 54 238 54 C238 59.61 238 65.22 238 71 C210.28 71 182.56 71 154 71 C154 83.21 154 95.42 154 108 C188.32 108 222.64 108 258 108 C258 113.61 258 119.22 258 125 C223.68 125 189.36 125 154 125 C154 142.16 154 159.32 154 177 C135.19 177 116.38 177 97 177 C97 159.84 97 142.68 97 125 C62.68 125 28.36 125 -7 125 C-7 119.39 -7 113.78 -7 108 C27.32 108 61.64 108 97 108 C97 95.79 97 83.58 97 71 C68.95 71 40.9 71 12 71 C12 65.39 12 59.78 12 54 C40.05 54 68.1 54 97 54 C97 41.79 97 29.58 97 17 C64.99 17 32.98 17 0 17 C0 11.39 0 5.78 0 0 Z " fill="#201B18" transform="translate(319,477)"/>
<path d="M0 0 C15.18 0 30.36 0 46 0 C46 53.79 46 107.58 46 163 C47.65 163 49.3 163 51 163 C51 119.44 51 75.88 51 31 C59.91 31 68.82 31 78 31 C78 80.17 78 129.34 78 180 C63.335625 180.061875 48.67125 180.12375 33.5625 180.1875 C26.63745483 180.22846802 26.63745483 180.22846802 19.57250977 180.27026367 C13.90026855 180.28381348 13.90026855 180.28381348 11.23814392 180.28633118 C9.3935173 180.2909139 7.54889921 180.30141502 5.70433044 180.31672668 C2.89721251 180.3388475 0.09063995 180.34171266 -2.71655273 180.34057617 C-3.52732238 180.3513705 -4.33809202 180.36216482 -5.17343044 180.37328625 C-12.25308352 180.33519595 -18.29842542 178.76641415 -24.25 174.875 C-31.60453235 167.18617073 -32.72346288 160.28061444 -32.56762695 149.86108398 C-32.56835709 148.57229843 -32.56908722 147.28351288 -32.56983948 145.95567322 C-32.57126487 142.44769763 -32.54202006 138.94058961 -32.50696969 135.43281436 C-32.4755579 131.75734362 -32.47276385 128.08184952 -32.46684265 124.40626526 C-32.45134743 117.4577619 -32.41037831 110.50965531 -32.3600952 103.56132609 C-32.30406635 95.6459675 -32.27668135 87.73058923 -32.25161803 79.81508148 C-32.19945782 63.54311925 -32.10782114 47.27170307 -32 31 C-22.76 31 -13.52 31 -4 31 C-3.98018066 34.80120361 -3.96036133 38.60240723 -3.93994141 42.51879883 C-3.87313655 55.05580846 -3.79559633 67.59273221 -3.71247292 80.12964344 C-3.66232213 87.73329971 -3.61587955 95.33694507 -3.578125 102.94067383 C-3.54521398 109.56703556 -3.50538778 116.19331319 -3.45720994 122.81958216 C-3.431936 126.32909235 -3.41015745 129.83854669 -3.39665604 133.34812355 C-3.38146527 137.26318961 -3.35083779 141.1780509 -3.31884766 145.09301758 C-3.31668747 146.2604248 -3.31452728 147.42783203 -3.31230164 148.63061523 C-3.30113815 149.69492264 -3.28997467 150.75923004 -3.2784729 151.85578918 C-3.27294214 152.78219113 -3.26741138 153.70859308 -3.26171303 154.66306782 C-3.15052053 157.27109188 -3.15052053 157.27109188 -1 160 C-0.67 107.2 -0.34 54.4 0 0 Z " fill="#211C19" transform="translate(51,448)"/>
<path d="M0 0 C12.87 0 25.74 0 39 0 C39 10.56 39 21.12 39 32 C41.34996094 31.95359375 43.69992187 31.9071875 46.12109375 31.859375 C48.42470139 31.82808265 50.72828437 31.80385033 53.03198242 31.78027344 C54.61965726 31.76029255 56.20725979 31.73309797 57.79467773 31.69824219 C67.76561882 31.48496003 76.24702598 31.34191586 84.33984375 37.89453125 C84.86707031 38.52746094 85.39429688 39.16039062 85.9375 39.8125 C86.48277344 40.43769531 87.02804687 41.06289063 87.58984375 41.70703125 C91.11433648 47.43799312 91.32091223 53.5223644 91.40161133 60.06201172 C91.4195726 60.94280899 91.43753387 61.82360626 91.45603943 62.73109436 C91.51051376 65.63058271 91.54866926 68.52988231 91.58203125 71.4296875 C91.59392675 72.42807774 91.60582226 73.42646797 91.61807823 74.45511246 C91.67727488 79.74607258 91.72112379 85.0369472 91.75512695 90.328125 C91.78618029 94.67583597 91.84868538 99.02130194 91.93969727 103.36816406 C92.0501264 108.64800048 92.10483661 113.92579141 92.12152672 119.20672989 C92.13665185 121.20249753 92.17032783 123.19822624 92.22416115 125.19332504 C92.60747208 140.2377237 89.39168101 149.26227927 80 161 C78.67305136 162.75120683 77.34619222 164.50248148 76.01953125 166.25390625 C75.47014893 166.97312256 74.9207666 167.69233887 74.35473633 168.43334961 C69.21559215 175.44949657 69.21559215 175.44949657 68.5 183.7734375 C69.99495238 187.27240134 72.1491877 190.31312544 74.31982422 193.42285156 C76.36111189 196.5538938 78.11350907 199.810458 79.84765625 203.1171875 C80.34344933 204.06251091 80.34344933 204.06251091 80.84925842 205.02693176 C81.52197746 206.31264259 82.19391554 207.59876233 82.86508179 208.88528442 C84.48888518 211.9839702 86.14431877 215.06532358 87.8046875 218.14453125 C88.37171387 219.20003174 88.93874023 220.25553223 89.52294922 221.34301758 C91.01093594 224.10365964 91.01093594 224.10365964 93 227 C93 227.99 93 228.98 93 230 C87.43188811 230.24815034 81.86702209 230.42906728 76.29467773 230.54931641 C74.40185471 230.59945527 72.50941618 230.66759108 70.61791992 230.75439453 C54.83768429 231.46016671 54.83768429 231.46016671 50.23095703 227.79980469 C48.46720301 225.25820633 47.21116926 222.8365238 46 220 C45.01 219.01 45.01 219.01 44 218 C43.66613281 218.85754883 43.33226562 219.71509766 42.98828125 220.59863281 C41.13214917 224.31414197 39.40051479 227.55486793 36 230 C29.31345152 232.06516755 21.88693522 231.12138297 15 230.75 C13.06136275 230.68975162 11.12254612 230.63500834 9.18359375 230.5859375 C4.45127641 230.45422023 -0.2723844 230.24755237 -5 230 C-3.76026834 225.95547228 -2.28540907 222.46763201 -0.12890625 218.83203125 C0.44118164 217.86547607 1.01126953 216.8989209 1.59863281 215.90307617 C2.50887207 214.37324097 2.50887207 214.37324097 3.4375 212.8125 C4.05334961 211.75329346 4.66919922 210.69408691 5.30371094 209.6027832 C8.27468449 204.50689773 11.30015904 199.48815978 14.58203125 194.5859375 C15.3865271 193.33913208 15.3865271 193.33913208 16.20727539 192.06713867 C17.2093191 190.52149537 18.24753545 188.99850397 19.32592773 187.50512695 C20.77177652 185.22948213 21.52016046 183.65551954 22 181 C19.82857328 175.00119373 15.97485393 169.83260699 11.94921875 164.94775391 C-3.95110865 144.80216009 -1.92080749 123.19587982 -1.09863281 98.63989258 C-0.93255446 93.14245243 -0.8613822 87.64377657 -0.78125 82.14453125 C-0.61156482 71.42651512 -0.33990596 60.71387839 0 50 C-3.96 49.505 -3.96 49.505 -8 49 C-8 43.39 -8 37.78 -8 32 C-4.04 31.505 -4.04 31.505 0 31 C0 20.77 0 10.54 0 0 Z M39 49 C38.86056432 59.51859312 38.75415874 70.03696394 38.68912697 80.55629539 C38.65790396 85.44167255 38.61559771 90.32641426 38.54736328 95.21142578 C38.48184649 99.9317811 38.44622614 104.65152786 38.43073654 109.37230301 C38.41970786 111.16717729 38.39817153 112.96202079 38.36561966 114.75663376 C38.18891241 124.9086514 38.07346483 132.83682313 45 141 C46.02323436 139.68441297 47.01755155 138.34631825 48 137 C48.82281212 135.87253357 48.82281212 135.87253357 49.6622467 134.72229004 C51.36234386 131.26264052 51.42850758 128.21441145 51.40405273 124.44335938 C51.41091599 123.69963577 51.41777924 122.95591217 51.42485046 122.18965149 C51.44309364 119.74082133 51.43928515 117.29263327 51.43359375 114.84375 C51.43815635 113.13651319 51.44346216 111.42927821 51.44947815 109.7220459 C51.45840404 106.14779182 51.45599165 102.57376126 51.44604492 98.99951172 C51.43454846 94.42280248 51.45477932 89.84686403 51.48396206 85.27025604 C51.50232039 81.74602371 51.50203249 78.22197628 51.49632454 74.69770813 C51.49617132 73.01043109 51.50221636 71.32314152 51.51461601 69.63591003 C51.52952004 67.27566328 51.51885532 64.91684319 51.50170898 62.55664062 C51.51137695 61.86246536 51.52104492 61.1682901 51.53100586 60.45307922 C51.48107649 57.16543584 51.00560411 55.01064859 49.46864319 52.09020996 C45.99456362 49.14869303 43.49954247 49.22497712 39 49 Z " fill="#201B18" transform="translate(908,424)"/>
<path d="M0 0 C17.49 0 34.98 0 53 0 C52.11488453 4.42557735 50.81422249 7.95775702 48.9296875 11.984375 C48.45967316 13.00581856 48.45967316 13.00581856 47.98016357 14.04789734 C46.94994699 16.28419999 45.91245251 18.51704627 44.875 20.75 C44.15744633 22.30449481 43.44049446 23.85926754 42.72412109 25.41430664 C41.61322145 27.82558071 40.50193608 30.23666833 39.38870239 32.64686584 C35.09691013 41.94097028 30.87405433 51.26620597 26.64935303 60.59094238 C25.73824405 62.60129046 24.82621715 64.61121997 23.9140625 66.62109375 C23.3979541 67.7598999 22.8818457 68.89870605 22.35009766 70.07202148 C21.2759874 72.40146169 20.14717083 74.70565835 19 77 C24.28 77 29.56 77 35 77 C35 126.83 35 176.66 35 228 C17.18 228 -0.64 228 -19 228 C-19 182.46 -19 136.92 -19 90 C-25.93 90 -32.86 90 -40 90 C-37.95391738 83.86175213 -35.86203697 78.21007745 -33.11328125 72.41796875 C-32.73877838 71.61742065 -32.36427551 70.81687256 -31.97842407 69.99206543 C-31.17605206 68.27726508 -30.37165802 66.56340963 -29.56539917 64.85043335 C-27.42517177 60.30155738 -25.30152697 55.74497649 -23.1796875 51.1875 C-22.74782639 50.26015549 -22.31596527 49.33281097 -21.87101746 48.37736511 C-16.74328833 37.33725277 -11.81391375 26.21020979 -6.90161133 15.07299805 C-6.58404877 14.35341919 -6.26648621 13.63384033 -5.93930054 12.89245605 C-5.35197336 11.56044999 -4.76572662 10.22796673 -4.18081665 8.89489746 C-2.85607402 5.88550657 -1.47155988 2.94311976 0 0 Z " fill="#201B18" transform="translate(649,425)"/>
<path d="M0 0 C19.14 0 38.28 0 58 0 C58 5.94 58 11.88 58 18 C61.75890625 17.94779297 61.75890625 17.94779297 65.59375 17.89453125 C68.04295718 17.8710799 70.49215146 17.85289519 72.94140625 17.83520508 C74.63287022 17.82019495 76.32429578 17.79978037 78.015625 17.77368164 C80.45843024 17.73695314 82.9007173 17.72019589 85.34375 17.70703125 C86.46299866 17.68380547 86.46299866 17.68380547 87.6048584 17.66011047 C93.97069303 17.65810746 99.66856333 18.78812418 104.4375 23.3125 C106.33167721 26.5704848 107 28.19745456 107 32 C104.52683542 40.70774381 100.40192769 48.93881387 96.60388184 57.12890625 C94.80620607 61.00620483 93.02351841 64.89040044 91.23828125 68.7734375 C90.69800797 69.94697784 90.69800797 69.94697784 90.14682007 71.14422607 C86.80407284 78.41001456 83.51597761 85.69943199 80.25 93 C79.7329248 94.1557251 79.21584961 95.3114502 78.68310547 96.50219727 C73.10203633 108.99253531 67.54762177 121.49477708 62 134 C54.92011888 134.12746075 47.84053695 134.21462725 40.75976562 134.2746582 C38.3543797 134.29970084 35.94906911 134.333745 33.54394531 134.37719727 C30.07337794 134.4382988 26.60382228 134.46631363 23.1328125 134.48828125 C21.53688766 134.52699089 21.53688766 134.52699089 19.90872192 134.56648254 C11.9746737 134.56941925 5.0028676 132.92702958 -0.82339478 127.21115112 C-5.49211718 121.65924502 -8.00047572 114.68958129 -10.75 108.0625 C-11.57678246 106.10436087 -12.40766338 104.147993 -13.23883057 102.19171143 C-13.83748287 100.78234891 -14.43490494 99.3724633 -15.03118896 97.96209717 C-17.57071493 91.9674988 -20.18219703 86.00603761 -22.8125 80.05078125 C-23.22155579 79.12405106 -23.63061157 78.19732086 -24.05206299 77.24250793 C-25.69060515 73.53215876 -27.33021119 69.82228908 -28.97351074 66.11404419 C-30.12582375 63.51217686 -31.27419325 60.90860028 -32.421875 58.3046875 C-32.76919678 57.52366165 -33.11651855 56.7426358 -33.47436523 55.9379425 C-33.7931665 55.21318222 -34.11196777 54.48842194 -34.44042969 53.74169922 C-34.85793488 52.79821121 -34.85793488 52.79821121 -35.28387451 51.83566284 C-36 50 -36 50 -37 46 C-22.15 46.33 -7.3 46.66 8 47 C10.95749318 52.91498636 13.82107542 58.67375582 16.33203125 64.7578125 C16.75424202 65.76870438 16.75424202 65.76870438 17.1849823 66.80001831 C18.06411598 68.90699138 18.93840443 71.01593262 19.8125 73.125 C20.41569252 74.5730513 21.0192059 76.02096899 21.62304688 77.46875 C23.08572941 80.97763955 24.54407735 84.48830054 26 88 C29.32081011 84.16714783 31.04404487 79.68337661 33.01171875 75.0703125 C33.38480667 74.20236053 33.75789459 73.33440857 34.14228821 72.44015503 C34.92758632 70.60733652 35.70992675 68.77324829 36.48950195 66.93798828 C37.68237844 64.13702581 38.892437 61.34391283 40.10351562 58.55078125 C40.86564837 56.76607943 41.62675069 54.98093716 42.38671875 53.1953125 C42.74916183 52.36387726 43.11160492 51.53244202 43.48503113 50.67581177 C45.33296203 46.27509724 46.45360541 42.87147696 46 38 C41.68445246 35.88501653 37.71138524 35.69492549 32.99682617 35.68115234 C31.81067215 35.66608391 31.81067215 35.66608391 30.60055542 35.65071106 C27.99803363 35.61992683 25.39561449 35.60285726 22.79296875 35.5859375 C20.98406596 35.56722201 19.17517186 35.54764831 17.36628723 35.5272522 C12.61362844 35.4759652 7.86094135 35.43632109 3.1081543 35.39910889 C-1.74502543 35.35904774 -6.5980878 35.30796502 -11.45117188 35.2578125 C-20.9673736 35.16109376 -30.48362392 35.07769502 -40 35 C-40 29.39 -40 23.78 -40 18 C-26.8 17.67 -13.6 17.34 0 17 C0 11.39 0 5.78 0 0 Z " fill="#211C19" transform="translate(176,520)"/>
<path d="M0 0 C31.02 0 62.04 0 94 0 C100.88707338 20.66122014 100.88707338 20.66122014 103.1484375 28.25 C103.40721176 29.10968384 103.66598602 29.96936768 103.93260193 30.85510254 C104.74918203 33.5693403 105.56220538 36.28462655 106.375 39 C107.51049084 42.78161958 108.6476509 46.56273595 109.78515625 50.34375 C110.06153427 51.26321411 110.33791229 52.18267822 110.62266541 53.13000488 C112.26439579 58.58399047 113.92734929 64.03069751 115.62109375 69.46875 C115.99766113 70.67917969 116.37422852 71.88960938 116.76220703 73.13671875 C117.44323149 75.31751672 118.12759837 77.49727483 118.81591797 79.67578125 C119.10998535 80.61808594 119.40405273 81.56039062 119.70703125 82.53125 C119.9594458 83.33111328 120.21186035 84.13097656 120.47192383 84.95507812 C121 87 121 87 121 90 C113.50710035 90.1265644 106.01447527 90.21425223 98.52075195 90.2746582 C95.97051696 90.29983408 93.42035434 90.33397705 90.87036133 90.37719727 C87.20896576 90.43771032 83.54852232 90.46617964 79.88671875 90.48828125 C78.7428923 90.51408768 77.59906586 90.5398941 76.420578 90.56648254 C75.35970474 90.5668602 74.29883148 90.56723785 73.20581055 90.56762695 C72.27093307 90.57873001 71.3360556 90.58983307 70.37284851 90.60127258 C68 90 68 90 66.29345703 87.78686523 C65.07408594 85.15962458 64.02289695 82.5867992 63.09887695 79.8425293 C62.58868767 78.34153938 62.58868767 78.34153938 62.06819153 76.81022644 C61.53363594 75.20840263 61.53363594 75.20840263 60.98828125 73.57421875 C60.61519333 72.47149124 60.24210541 71.36876373 59.85771179 70.23262024 C58.67048015 66.71940596 57.49139371 63.20351985 56.3125 59.6875 C55.50769742 57.30125146 54.70236501 54.91518155 53.89648438 52.52929688 C51.92484282 46.68825469 49.95987693 40.84499944 48 35 C44.07087161 44.64155149 40.17777747 54.2867862 36.69921875 64.1015625 C36.32037033 65.16790924 36.32037033 65.16790924 35.93386841 66.25579834 C34.92022038 69.11767565 33.9115174 71.98115321 32.91381836 74.84863281 C32.16365942 76.99869466 31.40118716 79.14405454 30.63671875 81.2890625 C30.20061279 82.53381348 29.76450684 83.77856445 29.31518555 85.06103516 C28 88 28 88 25 90 C22.66511536 90.24050903 22.66511536 90.24050903 19.88598633 90.22705078 C18.84513382 90.22689972 17.80428131 90.22674866 16.73188782 90.22659302 C15.60993515 90.21627045 14.48798248 90.20594788 13.33203125 90.1953125 C11.60710701 90.19106766 11.60710701 90.19106766 9.84733582 90.18673706 C6.16895204 90.17552833 2.49081038 90.15042224 -1.1875 90.125 C-3.67903295 90.11497111 -6.1705697 90.1058451 -8.66210938 90.09765625 C-14.77482241 90.07558673 -20.88739391 90.04210224 -27 90 C-25.7647113 84.08121364 -24.28106713 78.3125574 -22.47802734 72.54272461 C-22.10595878 71.33676683 -22.10595878 71.33676683 -21.72637367 70.10644627 C-20.93287529 67.5373731 -20.13453025 64.96983729 -19.3359375 62.40234375 C-18.8412294 60.80320058 -18.34684357 59.20395767 -17.8527832 57.60461426 C-16.03075011 51.71437003 -14.20250799 45.82604789 -12.375 39.9375 C-8.29125 26.758125 -4.2075 13.57875 0 0 Z " fill="#201B18" transform="translate(161,426)"/>
<path d="M0 0 C2.61490356 2.35979101 5.14371161 4.75142994 7.5625 7.3125 C8.09359375 6.83039062 8.6246875 6.34828125 9.171875 5.8515625 C9.87828125 5.21992187 10.5846875 4.58828125 11.3125 3.9375 C12.00859375 3.31101562 12.7046875 2.68453125 13.421875 2.0390625 C19.06558411 -2.51298025 24.50971461 -2.41179118 31.5625 -1.6875 C37.48495168 0.01847626 41.18748757 3.24998135 44.5625 8.3125 C46.83189345 14.3884425 46.82334874 20.05957166 46.7578125 26.49609375 C46.7549826 27.55159927 46.75215271 28.6071048 46.74923706 29.69459534 C46.73809415 33.04651504 46.71300024 36.39816184 46.6875 39.75 C46.6774626 42.03059508 46.66833808 44.31119438 46.66015625 46.59179688 C46.63817407 52.16546881 46.60368473 57.73893822 46.5625 63.3125 C42.6025 63.3125 38.6425 63.3125 34.5625 63.3125 C34.54791748 61.91491455 34.53333496 60.5173291 34.51831055 59.07739258 C34.46029169 53.88686678 34.38305837 48.69677315 34.30004883 43.5065918 C34.26681649 41.2612205 34.23877931 39.015766 34.21606445 36.77026367 C34.18248798 33.54049257 34.13016927 30.31148273 34.07421875 27.08203125 C34.06782883 26.07977005 34.0614389 25.07750885 34.05485535 24.0448761 C33.93867984 17.17875918 33.93867984 17.17875918 30.5625 11.3125 C27.11355608 9.58802804 23.34093255 9.94578904 19.5625 10.3125 C15.84039139 11.93080809 13.66319559 13.84635228 11.5625 17.3125 C10.70880623 20.1207693 10.4189044 22.6944626 10.35717773 25.62207031 C10.33723251 26.46263977 10.31728729 27.30320923 10.29673767 28.16925049 C10.27166893 29.51633087 10.27166893 29.51633087 10.24609375 30.890625 C10.22531265 31.8171991 10.20453156 32.74377319 10.18312073 33.69842529 C10.11783039 36.65304272 10.05883569 39.60774768 10 42.5625 C9.95679527 44.56771732 9.91318035 46.57292585 9.86914062 48.578125 C9.76217001 53.48949404 9.66084482 58.40095097 9.5625 63.3125 C5.6025 63.3125 1.6425 63.3125 -2.4375 63.3125 C-2.467229 61.16282715 -2.467229 61.16282715 -2.49755859 58.96972656 C-2.57361059 53.65444315 -2.66232895 48.33943364 -2.75488281 43.02441406 C-2.79317417 40.7236878 -2.82802674 38.42290165 -2.859375 36.12207031 C-2.9050217 32.81553738 -2.96301747 29.50941688 -3.0234375 26.203125 C-3.03498871 25.17382874 -3.04653992 24.14453247 -3.05844116 23.08404541 C-3.07831085 22.12335144 -3.09818054 21.16265747 -3.11865234 20.17285156 C-3.13197601 19.32901917 -3.14529968 18.48518677 -3.1590271 17.61578369 C-3.46445422 15.08955829 -4.08750901 13.46101788 -5.4375 11.3125 C-9.83741781 9.11254109 -15.16988115 9.95373995 -19.75 11.25 C-24.06268892 14.55973801 -25.96134769 19.36577098 -26.82336426 24.70046997 C-26.98979673 27.19375149 -27.04326475 29.66140428 -27.046875 32.16015625 C-27.06341125 33.05745956 -27.07994751 33.95476288 -27.09698486 34.8792572 C-27.14510057 37.7112436 -27.16675404 40.54269456 -27.1875 43.375 C-27.21569023 45.30927121 -27.24562188 47.24351786 -27.27734375 49.17773438 C-27.35084928 53.88927875 -27.40064556 58.60053221 -27.4375 63.3125 C-31.3975 63.3125 -35.3575 63.3125 -39.4375 63.3125 C-39.4375 42.1925 -39.4375 21.0725 -39.4375 -0.6875 C-35.8075 -0.6875 -32.1775 -0.6875 -28.4375 -0.6875 C-27.7775 1.2925 -27.1175 3.2725 -26.4375 5.3125 C-25.550625 4.52875 -24.66375 3.745 -23.75 2.9375 C-17.25564702 -2.80169566 -7.71559278 -3.78765464 0 0 Z " fill="#231E1B" transform="translate(802.4375,709.6875)"/>
<path d="M0 0 C12.87 0 25.74 0 39 0 C40.65 23.43 42.3 46.86 44 71 C31.46 71 18.92 71 6 71 C4.50260445 54.72919301 4.50260445 54.72919301 3.8671875 47.78320312 C3.43392303 43.04716085 3.00016899 38.31116704 2.56347656 33.57543945 C2.2113643 29.75660579 1.86146694 25.93757502 1.51309204 22.11839867 C1.37991894 20.66271952 1.24595342 19.20711263 1.11117554 17.75158119 C0.9222671 15.70998112 0.7362 13.66814026 0.55078125 11.6262207 C0.44419189 10.46484085 0.33760254 9.303461 0.2277832 8.10688782 C0.03011523 5.41076176 0 2.70336242 0 0 Z " fill="#221D1A" transform="translate(1119,582)"/>
<path d="M0 0 C1.04590805 0.00222061 2.0918161 0.00444122 3.16941833 0.00672913 C4.35056717 0.00680466 5.531716 0.00688019 6.74865723 0.00695801 C8.03404892 0.01211929 9.31944061 0.01728058 10.64378357 0.02259827 C12.60601112 0.02472069 12.60601112 0.02472069 14.60787964 0.02688599 C18.09150591 0.03071042 21.57509071 0.04054005 25.05870056 0.05158997 C28.6111444 0.06180569 32.16359491 0.06638395 35.71604919 0.07142639 C42.69067564 0.0821624 49.66527449 0.09923792 56.63987732 0.12025452 C54.92899206 6.64416309 53.08879447 13.0490315 50.75706482 19.37806702 C50.4973288 20.0926004 50.23759277 20.80713379 49.96998596 21.5433197 C49.4292928 23.02774746 48.88647311 24.51140236 48.34153748 25.99427795 C47.50437815 28.2738435 46.67520265 30.55620461 45.84690857 32.83900452 C45.31742135 34.28969358 44.78749031 35.74022075 44.25706482 37.19056702 C44.00915192 37.87273285 43.76123901 38.55489868 43.5058136 39.25773621 C41.75553867 44.00459317 41.75553867 44.00459317 40.63987732 45.12025452 C38.79955743 45.24362626 36.95458321 45.29816759 35.1103363 45.32557678 C33.92918747 45.345522 32.74803864 45.36546722 31.53109741 45.38601685 C29.60300987 45.41108559 29.60300987 45.41108559 27.63597107 45.43666077 C26.32781937 45.45744186 25.01966766 45.47822296 23.671875 45.49963379 C20.18832285 45.55491751 16.70471072 45.60429882 13.22105408 45.65248108 C9.66855002 45.70265026 6.11613342 45.75836019 2.56370544 45.81361389 C-4.41082814 45.92127243 -11.38544066 46.02270018 -18.36012268 46.12025452 C-17.77256969 42.94360104 -17.04306879 39.94533669 -15.97731018 36.8966217 C-15.70032288 36.09939697 -15.42333557 35.30217224 -15.13795471 34.48078918 C-14.84002014 33.63478149 -14.54208557 32.7887738 -14.23512268 31.91712952 C-13.92816467 31.03873413 -13.62120667 30.16033875 -13.3049469 29.25532532 C-12.65764828 27.40569501 -12.0086872 25.55664577 -11.35816956 23.70814514 C-10.35932064 20.86797395 -9.3671822 18.02552122 -8.37574768 15.18275452 C-7.74593801 13.38573975 -7.11574315 11.58885992 -6.48512268 9.79212952 C-6.18718811 8.9380249 -5.88925354 8.08392029 -5.58229065 7.20393372 C-3.09480604 0.15768858 -3.09480604 0.15768858 0 0 Z " fill="#201B18" transform="translate(489.36012268066406,424.87974548339844)"/>
<path d="M0 0 C12.54 0 25.08 0 38 0 C37.41663029 10.50065478 36.82972621 20.90181741 35.80859375 31.3515625 C35.69902847 32.50248383 35.5894632 33.65340515 35.47657776 34.83920288 C35.13353294 38.4347953 34.78562427 42.02989622 34.4375 45.625 C34.20084601 48.09632298 33.96451563 50.56767698 33.72851562 53.0390625 C33.15666193 59.02647105 32.57819893 65.01318751 32 71 C19.79 71 7.58 71 -5 71 C-3.05256886 34.27701271 -3.05256886 34.27701271 -2.06365967 17.91259766 C-1.97966619 16.51441308 -1.89718318 15.11613694 -1.81622314 13.71777344 C-1.70337785 11.77643912 -1.58427467 9.83547155 -1.46484375 7.89453125 C-1.36610962 6.25254761 -1.36610962 6.25254761 -1.26538086 4.57739258 C-1 2 -1 2 0 0 Z " fill="#221D1A" transform="translate(1020,582)"/>
<path d="M0 0 C29.7 0.495 29.7 0.495 60 1 C62.475 7.868125 64.95 14.73625 67.5 21.8125 C68.28310547 23.9778833 69.06621094 26.1432666 69.87304688 28.37426758 C70.48865869 30.08922003 71.10391734 31.80429931 71.71875 33.51953125 C72.04262695 34.41103882 72.36650391 35.30254639 72.70019531 36.22106934 C73.00473633 37.07342163 73.30927734 37.92577393 73.62304688 38.80395508 C73.88952026 39.54341873 74.15599365 40.28288239 74.43054199 41.04475403 C75 43 75 43 75 46 C55.53 46 36.06 46 16 46 C13.545625 39.338125 11.09125 32.67625 8.5625 25.8125 C7.4014978 22.67004761 7.4014978 22.67004761 6.21704102 19.46411133 C5.6040378 17.79519172 4.99130779 16.12617173 4.37890625 14.45703125 C4.06014526 13.59734741 3.74138428 12.73766357 3.41296387 11.85192871 C3.1085437 11.02012085 2.80412354 10.18831299 2.49047852 9.33129883 C2.22622574 8.61404129 1.96197296 7.89678375 1.68971252 7.15779114 C0.94331821 4.82266892 0.48078063 2.40390313 0 0 Z " fill="#211C19" transform="translate(342,424)"/>
<path d="M0 0 C2.37353318 1.69975602 4.41201448 3.58813659 6.4375 5.6875 C6.7675 3.3775 7.0975 1.0675 7.4375 -1.3125 C11.0675 -1.3125 14.6975 -1.3125 18.4375 -1.3125 C18.48401505 7.00699672 18.51946601 15.32643832 18.54112434 23.64603329 C18.55152371 27.50991882 18.56561186 31.37371481 18.58837891 35.23754883 C18.61024549 38.97229952 18.6220975 42.70696455 18.62725449 46.44177437 C18.63092561 47.86059478 18.63809382 49.27941096 18.64896011 50.6981945 C18.73615975 62.56474213 18.36012689 72.29352812 10.4375 81.6875 C3.95396528 86.95537196 -2.35026912 88.03375305 -10.4375 88 C-11.58412109 88.02416992 -11.58412109 88.02416992 -12.75390625 88.04882812 C-18.98265131 88.05411568 -24.65244661 87.05823848 -29.5859375 83.0390625 C-33.30664947 78.28601426 -35.5625 74.91579911 -35.5625 68.6875 C-31.6025 68.6875 -27.6425 68.6875 -23.5625 68.6875 C-23.35625 69.80125 -23.15 70.915 -22.9375 72.0625 C-21.95182095 75.80023292 -21.95182095 75.80023292 -19.125 77.125 C-12.94951641 78.10007636 -7.1246278 78.52601455 -1.125 76.5625 C2.92871318 73.5963684 5.0745326 70.90190617 5.90234375 65.8515625 C6.15792412 63.12770599 6.34021427 60.42122888 6.4375 57.6875 C5.715625 58.30625 4.99375 58.925 4.25 59.5625 C-1.97778872 64.26794037 -7.98461197 64.42450158 -15.5625 63.6875 C-23.23575049 61.97025697 -28.31741492 58.28093002 -32.5625 51.6875 C-38.1650181 40.61911059 -39.28938436 28.82534525 -35.875 16.875 C-33.2146046 9.0711735 -29.99817015 3.784706 -22.5625 -0.3125 C-15.66015341 -3.59933171 -6.61696653 -4.06068926 0 0 Z M-21.5625 12.6875 C-27.01430846 21.52318957 -26.5269409 32.19296446 -24.4375 42.0625 C-22.93367968 47.52638051 -21.03426205 50.24051675 -16.5625 53.6875 C-11.19799101 55.47566966 -6.45865476 55.37584152 -1.3125 53.125 C2.97107817 50.75177987 4.48687969 48.13491431 6.4375 43.6875 C8.82232922 34.0686888 8.34508672 23.101627 3.625 14.3125 C0.68256283 10.7815754 -1.86610729 8.94093148 -6.46484375 8.25390625 C-14.76634508 8.21808126 -14.76634508 8.21808126 -21.5625 12.6875 Z " fill="#25201D" transform="translate(294.5625,710.3125)"/>
<path d="M0 0 C2.53864469 1.4249167 4.44261922 3.07134988 6.4375 5.1875 C7.0975 3.2075 7.7575 1.2275 8.4375 -0.8125 C11.7375 -0.8125 15.0375 -0.8125 18.4375 -0.8125 C18.53055768 8.01120428 18.60144501 16.83473724 18.64474869 25.65882683 C18.66554201 29.75710371 18.69370646 33.85504259 18.73925781 37.953125 C18.7830132 41.91483972 18.80669905 45.87623121 18.81700897 49.8381691 C18.82434752 51.34272467 18.83867683 52.8472644 18.86042023 54.35168076 C18.99384847 63.97427228 18.73441219 72.73883815 12.54296875 80.58984375 C11.91003906 81.09644531 11.27710938 81.60304688 10.625 82.125 C9.99980469 82.64964844 9.37460937 83.17429687 8.73046875 83.71484375 C2.50998943 87.70993865 -2.59067952 88.74562344 -9.875 88.6875 C-10.71369629 88.68105469 -11.55239258 88.67460938 -12.41650391 88.66796875 C-18.97585304 88.4745602 -24.43521358 87.59293244 -29.5625 83.1875 C-33.25572917 78.97531591 -35.13943136 74.82841526 -35.5625 69.1875 C-31.6025 69.1875 -27.6425 69.1875 -23.5625 69.1875 C-23.005625 70.30125 -22.44875 71.415 -21.875 72.5625 C-20.50244859 74.91340986 -19.7220433 76.07957365 -17.4375 77.625 C-10.61437585 78.95995907 -4.34879833 79.05688389 1.80859375 75.51171875 C4.70504781 73.15704747 5.4930995 70.72900189 6.4375 67.1875 C6.64261198 64.46380373 6.58166154 61.92656925 6.4375 59.1875 C5.53 59.826875 4.6225 60.46625 3.6875 61.125 C-2.10732302 64.80248384 -7.82898092 64.71049177 -14.5625 64.1875 C-17.43680103 63.51928643 -19.93394365 62.51628456 -22.5625 61.1875 C-23.59375 60.671875 -24.625 60.15625 -25.6875 59.625 C-33.14310179 53.3039463 -36.11185229 44.44329661 -37.3125 35 C-38.05015583 25.02798596 -36.21008734 15.54712137 -30.5625 7.1875 C-22.86727969 -1.49946708 -10.82210857 -5.19141739 0 0 Z M-21.8125 15.1875 C-26.21915483 22.74176542 -25.53120344 33.69580624 -24.03125 42.19921875 C-22.41638496 47.36854215 -20.12145977 51.69477347 -15.3125 54.5 C-10.22582395 55.77166901 -6.17945484 55.77831042 -1.3125 54 C3.28779949 50.96798442 5.79245364 47.3979902 7.4375 42.1875 C8.45358371 32.61997894 8.89271692 21.40135518 3.1015625 13.32421875 C0.42809277 10.48773257 -1.63575189 9.33479771 -5.51171875 8.71875 C-12.70396421 8.50643279 -17.30760977 9.1809797 -21.8125 15.1875 Z " fill="#25201D" transform="translate(649.5625,709.8125)"/>
<path d="M0 0 C3.63 0 7.26 0 11 0 C11 28.71 11 57.42 11 87 C7.37 87 3.74 87 0 87 C-0.33 85.35 -0.66 83.7 -1 82 C-1.721875 82.61875 -2.44375 83.2375 -3.1875 83.875 C-9.4196066 88.58370277 -15.41825537 88.72883188 -23 88 C-29.99889907 86.50382215 -34.83365338 83.22117778 -39.3046875 77.6640625 C-45.88924046 67.31690785 -46.33302395 54.90269565 -44.5625 43.078125 C-42.82617972 36.08943588 -38.90304246 29.94968971 -33.12890625 25.5859375 C-26.7324284 21.76180665 -20.31088313 21.25335662 -13 22 C-7.88407913 23.75294123 -4.82957398 27.17042602 -1 31 C-0.67 20.77 -0.34 10.54 0 0 Z M-29 37 C-34.60532974 44.70959592 -34.46418013 53.70281389 -33.3125 62.8125 C-32.15205529 69.29869428 -30.28134405 72.98392852 -25.3125 77.375 C-21.01904096 79.48122519 -17.69600276 79.69133254 -13 79 C-7.57912511 77.05666749 -4.85115831 74.09660673 -1.9375 69.22265625 C1.84628841 60.25192456 0.07389822 49.49583029 -3.25 40.6875 C-5.43650709 37.32964983 -7.33103256 34.68071608 -11 33 C-17.76824075 31.9323077 -23.93731875 31.93731875 -29 37 Z " fill="#25201D" transform="translate(1019,686)"/>
<path d="M0 0 C5.54691839 3.51995017 7.54240407 7.92158312 8.98828125 14.26171875 C9.23684523 17.41092056 9.22244825 20.53795828 9.18359375 23.6953125 C9.18076385 24.57324966 9.17793396 25.45118683 9.17501831 26.35572815 C9.16389723 29.1370352 9.13880797 31.91801039 9.11328125 34.69921875 C9.103241 36.59439636 9.09411698 38.48957907 9.0859375 40.38476562 C9.0639844 45.01054292 9.02951085 49.63607473 8.98828125 54.26171875 C11.29828125 54.26171875 13.60828125 54.26171875 15.98828125 54.26171875 C15.98828125 56.90171875 15.98828125 59.54171875 15.98828125 62.26171875 C5.29557781 64.01566022 5.29557781 64.01566022 -0.01171875 60.26171875 C-1.04131434 58.95110413 -2.04671795 57.62059742 -3.01171875 56.26171875 C-4.02492188 56.89400391 -4.02492188 56.89400391 -5.05859375 57.5390625 C-5.950625 58.08691406 -6.84265625 58.63476562 -7.76171875 59.19921875 C-8.6434375 59.74449219 -9.52515625 60.28976562 -10.43359375 60.8515625 C-17.05009327 64.47058724 -25.45561027 64.30596551 -32.6875 62.6484375 C-37.75765693 60.71410872 -40.58579774 58.11850341 -43.140625 53.3359375 C-45.30375454 48.18516716 -45.41841269 43.53037282 -43.8515625 38.24609375 C-41.58547352 32.89179978 -38.00770644 29.40036127 -32.76171875 26.94921875 C-27.12311457 24.92620809 -21.28072348 24.4297307 -15.34472656 23.9440918 C-11.26802532 23.60084166 -7.6604414 23.28721856 -4.01171875 21.26171875 C-2.7494083 17.7114706 -2.7009367 15.98142455 -4.19921875 12.51171875 C-6.14247206 10.0994043 -7.1641428 9.36719017 -10.01171875 8.26171875 C-15.68608479 7.72431361 -23.14579007 7.06044988 -28.01171875 10.26171875 C-29.14289934 13.29483534 -29.5486275 16.02008003 -30.01171875 19.26171875 C-33.64171875 19.26171875 -37.27171875 19.26171875 -41.01171875 19.26171875 C-41.4134245 12.56662291 -40.08360603 8.82110893 -35.88671875 3.63671875 C-25.98596644 -4.5421636 -11.59183776 -5.55239288 0 0 Z M-16.38671875 33.51171875 C-17.44117188 33.71667969 -18.495625 33.92164063 -19.58203125 34.1328125 C-20.5978125 34.34550781 -21.61359375 34.55820312 -22.66015625 34.77734375 C-23.59005371 34.96586914 -24.51995117 35.15439453 -25.47802734 35.34863281 C-28.50832728 36.4406854 -29.9732328 37.79341568 -32.01171875 40.26171875 C-32.80478106 43.67462137 -32.64554617 46.82420429 -32.01171875 50.26171875 C-30.29809695 53.13321952 -30.29809695 53.13321952 -27.01171875 54.26171875 C-20.66296731 55.18735146 -14.6333286 54.42231273 -9.01171875 51.26171875 C-5.91259834 48.62416947 -4.29835997 47.1216424 -3.01171875 43.26171875 C-2.94272775 41.20026768 -2.92704148 39.13670474 -2.94921875 37.07421875 C-2.95824219 35.98753906 -2.96726562 34.90085937 -2.9765625 33.78125 C-2.98816406 32.94980469 -2.99976563 32.11835937 -3.01171875 31.26171875 C-7.50431426 31.26171875 -12.00440293 32.60228185 -16.38671875 33.51171875 Z " fill="#27221F" transform="translate(1159.01171875,710.73828125)"/>
<path d="M0 0 C8.05980062 6.14504136 11.04562082 15.13489814 12.7890625 24.7734375 C13.1698069 28.03440127 13.12109375 31.33407145 13.12109375 34.6171875 C-2.05890625 34.6171875 -17.23890625 34.6171875 -32.87890625 34.6171875 C-31.06957453 42.17271023 -31.06957453 42.17271023 -28.87890625 49.6171875 C-26.5026528 50.80109973 -26.5026528 50.80109973 -23.87890625 51.6171875 C-22.39390625 52.1121875 -22.39390625 52.1121875 -20.87890625 52.6171875 C-14.90388903 53.15195668 -9.96642015 53.12999472 -4.87890625 49.6171875 C-2.39367637 46.93045249 -1.03708245 45.09171611 0.12109375 41.6171875 C6.06109375 41.1221875 6.06109375 41.1221875 12.12109375 40.6171875 C11.51484669 48.70048161 7.00576693 54.26366221 1.0625 59.390625 C-6.54135601 64.19467085 -17.03464921 63.52647784 -25.640625 62.1875 C-32.15939435 60.34449715 -37.51664326 56.21520078 -41.23046875 50.55859375 C-46.29730438 40.91702523 -46.55633311 27.58507605 -43.75390625 17.1171875 C-40.25342337 7.63200808 -35.09512752 1.87550756 -25.87890625 -2.3828125 C-17.49553345 -5.18881744 -7.59225318 -4.41323091 0 0 Z M-30.81640625 14.9921875 C-32.25432716 18.24236881 -32.25432716 18.24236881 -32.87890625 24.6171875 C-21.65890625 24.6171875 -10.43890625 24.6171875 1.12109375 24.6171875 C-0.11403969 16.98230731 -0.11403969 16.98230731 -3.81640625 11.6171875 C-4.32042969 11.0603125 -4.82445312 10.5034375 -5.34375 9.9296875 C-8.93745954 6.857203 -13.5343275 7.2279828 -18.015625 7.26953125 C-23.58107863 7.9452821 -27.33508639 10.72476315 -30.81640625 14.9921875 Z " fill="#25201D" transform="translate(928.87890625,711.3828125)"/>
<path d="M0 0 C4.31608054 3.47163 7.51815322 7.52146697 8.29867554 13.15618896 C8.44146452 15.69849116 8.49339082 18.22719853 8.51171875 20.7734375 C8.52966995 21.6971817 8.54762115 22.6209259 8.56611633 23.57266235 C8.62005424 26.50672926 8.654062 29.44063501 8.6875 32.375 C8.72068766 34.37111609 8.75517865 36.36721097 8.79101562 38.36328125 C8.87577126 43.24207093 8.94266117 48.12081419 9 53 C11.31 53.33 13.62 53.66 16 54 C16 56.64 16 59.28 16 62 C6.34754496 63.42554051 6.34754496 63.42554051 1.4375 61.875 C-1.30221931 59.76752361 -2.10747297 58.30235 -3 55 C-3.49628906 55.40992188 -3.99257813 55.81984375 -4.50390625 56.2421875 C-12.53955789 62.61581632 -19.85968592 63.84952099 -30 63 C-36.24278307 61.7781395 -39.4570246 59.21025794 -43 54 C-45.51270368 49.57285542 -45.65485401 44.9652855 -45 40 C-43.3726687 34.55282517 -40.64322568 31.17052736 -35.9765625 28.0078125 C-29.69193821 24.80339932 -23.09624657 24.24501583 -16.1875 23.4375 C-14.09720082 23.19001467 -12.00732528 22.93891499 -9.91796875 22.68359375 C-8.99781982 22.57587646 -8.0776709 22.46815918 -7.12963867 22.35717773 C-5.02203023 22.21549891 -5.02203023 22.21549891 -4 21 C-3.38990916 15.37188542 -3.38990916 15.37188542 -5.8125 10.5625 C-9.44532772 7.96762306 -12.52253338 7.81512419 -16.875 7.75 C-17.90367187 7.72421875 -18.93234375 7.6984375 -19.9921875 7.671875 C-23.46726354 8.0509742 -25.25636018 8.85217688 -28 11 C-29.21143606 12.99693687 -29.21143606 12.99693687 -29.8125 15.1875 C-30.204375 16.445625 -30.59625 17.70375 -31 19 C-34.63 19 -38.26 19 -42 19 C-41.40488668 12.09668549 -40.39322882 7.39322882 -35.3125 2.3125 C-25.70072579 -4.91966021 -10.62542208 -5.77468591 0 0 Z M-16.3125 33.1875 C-17.35857422 33.38408203 -18.40464844 33.58066406 -19.48242188 33.78320312 C-27.46193009 35.42685824 -27.46193009 35.42685824 -33 41 C-33.50006774 43.33920929 -33.50006774 43.33920929 -33 45.625 C-32.896875 46.38039063 -32.79375 47.13578125 -32.6875 47.9140625 C-31.88894834 50.33694084 -30.95268087 51.38903828 -29 53 C-24.22310934 55.38844533 -17.63700767 54.47769772 -12.6875 52.875 C-8.54081152 51.10384358 -6.50346057 48.71725963 -4 45 C-2.95490305 41.88430472 -2.89445912 39.02110686 -2.9375 35.75 C-2.94652344 34.85796875 -2.95554687 33.9659375 -2.96484375 33.046875 C-2.97644531 32.37140625 -2.98804688 31.6959375 -3 31 C-7.47366139 31 -11.94557168 32.29601859 -16.3125 33.1875 Z " fill="#25201D" transform="translate(476,711)"/>
<path d="M0 0 C4.7239482 3.51962148 7.81431044 8.73710625 8.9765625 14.47265625 C9.06105686 16.0910111 9.0943525 17.71245435 9.09008789 19.33300781 C9.09001236 20.29370178 9.08993683 21.25439575 9.08985901 22.24420166 C9.08469772 23.27349792 9.07953644 24.30279419 9.07421875 25.36328125 C9.0728038 26.42303162 9.07138885 27.48278198 9.06993103 28.574646 C9.06433632 31.95734487 9.05178475 35.3399774 9.0390625 38.72265625 C9.03404682 41.01692613 9.02948403 43.31119704 9.02539062 45.60546875 C9.01436861 51.22789012 8.99710757 56.85026194 8.9765625 62.47265625 C5.0165625 62.47265625 1.0565625 62.47265625 -3.0234375 62.47265625 C-3.01296387 61.30806885 -3.00249023 60.14348145 -2.99169922 58.94360352 C-2.95526917 54.58816652 -2.93245391 50.23274276 -2.91357422 45.87719727 C-2.90356877 43.99859343 -2.88996017 42.12000496 -2.87255859 40.24145508 C-2.8480687 37.52811877 -2.8368996 34.81498987 -2.828125 32.1015625 C-2.81780243 31.2730629 -2.80747986 30.44456329 -2.79684448 29.59095764 C-2.79562714 23.14290135 -3.25613605 16.62306319 -6.4609375 10.91015625 C-10.78156199 8.48639129 -15.20022532 8.91963192 -20.0234375 9.47265625 C-23.35544747 10.44196824 -25.1375036 11.19262015 -27.1272583 14.06750488 C-30.07579514 19.58989186 -30.62412889 24.24016839 -30.6328125 30.44140625 C-30.64934875 31.36232056 -30.66588501 32.28323486 -30.68292236 33.23205566 C-30.73113378 36.14565885 -30.75271333 39.05874115 -30.7734375 41.97265625 C-30.80161967 43.95966125 -30.83155022 45.94664226 -30.86328125 47.93359375 C-30.93688539 52.77990498 -30.98662372 57.62593159 -31.0234375 62.47265625 C-34.9834375 62.47265625 -38.9434375 62.47265625 -43.0234375 62.47265625 C-43.0234375 41.35265625 -43.0234375 20.23265625 -43.0234375 -1.52734375 C-39.3934375 -1.52734375 -35.7634375 -1.52734375 -32.0234375 -1.52734375 C-31.6934375 0.78265625 -31.3634375 3.09265625 -31.0234375 5.47265625 C-30.57613281 5.06273437 -30.12882813 4.6528125 -29.66796875 4.23046875 C-29.06339844 3.69164062 -28.45882812 3.1528125 -27.8359375 2.59765625 C-26.94841797 1.79714844 -26.94841797 1.79714844 -26.04296875 0.98046875 C-18.65759555 -4.53356231 -7.99856343 -4.05745309 0 0 Z " fill="#282320" transform="translate(568.0234375,710.52734375)"/>
<path d="M0 0 C3.96 0 7.92 0 12 0 C14.78194825 6.05311743 17.16530876 12.08147318 19.234375 18.41015625 C19.51726379 19.26306747 19.80015259 20.1159787 20.09161377 20.99473572 C20.98203071 23.6825951 21.86612057 26.37248465 22.75 29.0625 C23.35765321 30.90052943 23.96572242 32.73842139 24.57421875 34.57617188 C26.05428675 39.04920847 27.52868964 43.52407551 29 48 C30.7345584 45.3981624 31.55791131 43.65288122 32.48046875 40.74389648 C32.75415283 39.88968613 33.02783691 39.03547577 33.30981445 38.15538025 C33.7442688 36.77715843 33.7442688 36.77715843 34.1875 35.37109375 C34.80984064 33.43032084 35.43223819 31.48956618 36.0546875 29.54882812 C37.03083188 26.48569493 38.00494268 23.42192758 38.97753906 20.35766602 C39.91742386 17.40215038 40.86462546 14.44905482 41.8125 11.49609375 C42.10213623 10.57525497 42.39177246 9.6544162 42.69018555 8.70567322 C42.96386963 7.85461502 43.23755371 7.00355682 43.51953125 6.12670898 C43.75776611 5.37630844 43.99600098 4.6259079 44.24145508 3.85276794 C45 2 45 2 47 0 C49.6015625 -0.1953125 49.6015625 -0.1953125 52.625 -0.125 C54.12933594 -0.09792969 54.12933594 -0.09792969 55.6640625 -0.0703125 C56.43492187 -0.04710937 57.20578125 -0.02390625 58 0 C56.58813487 7.12892787 54.45795778 13.76620734 51.96484375 20.5859375 C51.36851891 22.23053452 51.36851891 22.23053452 50.76014709 23.90835571 C49.91828551 26.22398103 49.07345521 28.53852897 48.22583008 30.85205078 C46.95544944 34.32591711 45.70083254 37.80519327 44.44726562 41.28515625 C40.70955941 51.57835002 36.8702726 61.79044698 32.25390625 71.7265625 C31.91334702 72.47167084 31.57278778 73.21677917 31.22190857 73.98446655 C28.32304947 80.00618137 24.92065969 85.67743712 18.6875 88.5 C14.17261593 89.11218767 10.49814977 88.69202304 6 88 C6 84.37 6 80.74 6 77 C9.3 77.33 12.6 77.66 16 78 C21.14890799 70.80086591 21.14890799 70.80086591 21.53543091 62.28921509 C20.28599839 56.94731247 18.21089004 51.83528586 16.30859375 46.69921875 C15.83850906 45.41389202 15.36912428 44.12830912 14.90040588 42.84248352 C13.67157742 39.47595247 12.43516675 36.1122627 11.1965332 32.74932861 C9.20895099 27.35028434 7.23112049 21.94767746 5.25688362 16.54374123 C4.56640172 14.65804225 3.8712927 12.77403967 3.1761322 10.89006042 C2.7589241 9.75160172 2.341716 8.61314301 1.91186523 7.44018555 C1.5418187 6.43537643 1.17177216 5.43056732 0.79051208 4.39530945 C0 2 0 2 0 0 Z " fill="#282320" transform="translate(344,709)"/>
<path d="M0 0 C5.30057032 3.1646865 8.53844294 7.51970362 10.5 13.375 C10.74050903 15.87446594 10.74050903 15.87446594 10.72705078 18.5324707 C10.72689972 19.53313065 10.72674866 20.53379059 10.72659302 21.56477356 C10.71627045 22.6326561 10.70594788 23.70053864 10.6953125 24.80078125 C10.6924826 25.90350876 10.68965271 27.00623627 10.68673706 28.14237976 C10.67555981 31.65753114 10.65045937 35.17242589 10.625 38.6875 C10.61496704 41.07356402 10.60584174 43.45963205 10.59765625 45.84570312 C10.57562845 51.68890066 10.54111513 57.53190685 10.5 63.375 C6.87 63.375 3.24 63.375 -0.5 63.375 C-0.529729 61.36950073 -0.529729 61.36950073 -0.56005859 59.32348633 C-0.63620817 54.35666267 -0.72491148 49.39012838 -0.81738281 44.42358398 C-0.85563385 42.27520466 -0.89049347 40.12676213 -0.921875 37.97827148 C-0.96760937 34.88762854 -1.02559056 31.79741919 -1.0859375 28.70703125 C-1.09748871 27.74851761 -1.10903992 26.79000397 -1.12094116 25.80244446 C-1.2311008 18.00321166 -1.2311008 18.00321166 -5.28515625 11.5859375 C-9.41107101 9.33014636 -13.93562321 9.84677835 -18.5 10.375 C-21.47984167 11.70670309 -21.47984167 11.70670309 -23.5 13.375 C-24.16 13.375 -24.82 13.375 -25.5 13.375 C-29.41846408 23.35500234 -29.05855737 33.43412543 -29.1875 44 C-29.2207226 45.8815335 -29.25521671 47.763045 -29.29101562 49.64453125 C-29.37535375 54.22123188 -29.44242826 58.79788762 -29.5 63.375 C-33.46 63.375 -37.42 63.375 -41.5 63.375 C-41.5 42.255 -41.5 21.135 -41.5 -0.625 C-37.87 -0.625 -34.24 -0.625 -30.5 -0.625 C-29.84 1.355 -29.18 3.335 -28.5 5.375 C-27.95730469 4.95347656 -27.41460937 4.53195312 -26.85546875 4.09765625 C-26.14003906 3.54980469 -25.42460937 3.00195312 -24.6875 2.4375 C-23.97980469 1.89222656 -23.27210938 1.34695313 -22.54296875 0.78515625 C-16.52223216 -3.37064855 -6.49667974 -2.9936899 0 0 Z " fill="#272320" transform="translate(210.5,709.625)"/>
<path d="M0 0 C3.96 0 7.92 0 12 0 C13 1 13 1 13.12025452 3.92958069 C13.1169236 5.89815285 13.1169236 5.89815285 13.11352539 7.90649414 C13.11367142 8.62840439 13.11381744 9.35031464 13.1139679 10.09410095 C13.11326869 12.49114947 13.10547595 14.88812123 13.09765625 17.28515625 C13.0957921 18.94282489 13.09436818 20.60049407 13.09336853 22.25816345 C13.08954312 26.62954214 13.07971265 31.00088781 13.06866455 35.37225342 C13.05665641 40.61267667 13.0520483 45.85311094 13.04621124 51.09354401 C13.0365009 59.06238566 13.01734452 67.03115482 13 75 C27.19 75.33 41.38 75.66 56 76 C56 79.63 56 83.26 56 87 C37.52 87 19.04 87 0 87 C0 58.29 0 29.58 0 0 Z " fill="#1F1A17" transform="translate(30,686)"/>
<path d="M0 0 C3.96 0 7.92 0 12 0 C12 21.12 12 42.24 12 64 C8.04 64 4.08 64 0 64 C0 42.88 0 21.76 0 0 Z " fill="#1F1A17" transform="translate(1068,709)"/>
<path d="M0 0 C3.63 0 7.26 0 11 0 C11 21.12 11 42.24 11 64 C7.04 64 3.08 64 -1 64 C-1.02255425 55.8030903 -1.04091696 47.60620455 -1.05181217 39.40927219 C-1.0570402 35.60348423 -1.06413638 31.79771852 -1.07543945 27.99194336 C-1.0862712 24.32207456 -1.09227744 20.65222722 -1.09487724 16.98234367 C-1.09673097 15.57925008 -1.1003506 14.17615771 -1.10573006 12.7730732 C-1.11294419 10.8143032 -1.11340809 8.8555118 -1.11352539 6.89672852 C-1.115746 5.77976089 -1.11796661 4.66279327 -1.12025452 3.51197815 C-1 1 -1 1 0 0 Z " fill="#1E1916" transform="translate(120,709)"/>
<path d="M0 0 C3.96 0 7.92 0 12 0 C13 1 13 1 13.12025452 3.92958069 C13.1169236 5.89815285 13.1169236 5.89815285 13.11352539 7.90649414 C13.11367142 8.62840439 13.11381744 9.35031464 13.1139679 10.09410095 C13.11326869 12.49114947 13.10547595 14.88812123 13.09765625 17.28515625 C13.0957921 18.94282489 13.09436818 20.60049407 13.09336853 22.25816345 C13.08954312 26.62954214 13.07971265 31.00088781 13.06866455 35.37225342 C13.05665641 40.61267667 13.0520483 45.85311094 13.04621124 51.09354401 C13.0365009 59.06238566 13.01734452 67.03115482 13 75 C33.295 75.495 33.295 75.495 54 76 C54 76.33 54 76.66 54 77 C47.8944529 77.02464513 41.78893449 77.04283371 35.68334961 77.05493164 C33.60456844 77.05997288 31.52579084 77.06680574 29.44702148 77.07543945 C26.46597414 77.08751422 23.48497351 77.09323024 20.50390625 77.09765625 C19.10078941 77.10539818 19.10078941 77.10539818 17.66932678 77.11329651 C16.37810158 77.11340981 16.37810158 77.11340981 15.06079102 77.11352539 C14.29912125 77.115746 13.53745148 77.11796661 12.75270081 77.12025452 C11 77 11 77 10 76 C9.90560022 73.73008113 9.88257774 71.45718033 9.88647461 69.18530273 C9.88632858 68.47314606 9.88618256 67.76098938 9.8860321 67.0272522 C9.8867313 64.66266888 9.89452394 62.29816339 9.90234375 59.93359375 C9.90420791 58.29834537 9.90563182 56.66309643 9.90663147 55.02784729 C9.91045682 50.71565215 9.92028725 46.40349048 9.93133545 42.09130859 C9.9415492 37.69434054 9.94612901 33.29736711 9.95117188 28.90039062 C9.96190951 20.26691169 9.97898613 11.63346 10 3 C7.36 3 4.72 3 2 3 C2 30.72 2 58.44 2 87 C1.34 87 0.68 87 0 87 C0 58.29 0 29.58 0 0 Z " fill="#35312E" transform="translate(30,686)"/>
<path d="M0 0 C3.63 0 7.26 0 11 0 C11 21.12 11 42.24 11 64 C7.04 64 3.08 64 -1 64 C-1.02255425 55.8030903 -1.04091696 47.60620455 -1.05181217 39.40927219 C-1.0570402 35.60348423 -1.06413638 31.79771852 -1.07543945 27.99194336 C-1.0862712 24.32207456 -1.09227744 20.65222722 -1.09487724 16.98234367 C-1.09673097 15.57925008 -1.1003506 14.17615771 -1.10573006 12.7730732 C-1.11294419 10.8143032 -1.11340809 8.8555118 -1.11352539 6.89672852 C-1.115746 5.77976089 -1.11796661 4.66279327 -1.12025452 3.51197815 C-1 1 -1 1 0 0 Z M2 3 C2 22.8 2 42.6 2 63 C4.31 63 6.62 63 9 63 C9 43.2 9 23.4 9 3 C6.69 3 4.38 3 2 3 Z " fill="#433F3C" transform="translate(120,709)"/>
<path d="M0 0 C3.63 0 7.26 0 11 0 C12 1 12 1 12.25 3.875 C12 7 12 7 10.5 8.875 C10.005 9.24625 9.51 9.6175 9 10 C9 7.69 9 5.38 9 3 C6.69 3 4.38 3 2 3 C2 23.13 2 43.26 2 64 C1.34 64 0.68 64 0 64 C0 42.88 0 21.76 0 0 Z " fill="#4B4847" transform="translate(763,709)"/>
<path d="M0 0 C3.96 0 7.92 0 12 0 C12 0.99 12 1.98 12 3 C8.7 3 5.4 3 2 3 C2 23.13 2 43.26 2 64 C1.34 64 0.68 64 0 64 C0 42.88 0 21.76 0 0 Z " fill="#403B39" transform="translate(1068,709)"/>
<path d="M0 0 C3.96 0 7.92 0 12 0 C12 4.29 12 8.58 12 13 C8.04 13 4.08 13 0 13 C0 8.71 0 4.42 0 0 Z " fill="#2B2624" transform="translate(1068,686)"/>
<path d="M0 0 C2.83203125 0.03255208 5.6640625 0.06510417 8.49609375 0.09765625 C8.49609375 4.38765625 8.49609375 8.67765625 8.49609375 13.09765625 C4.53609375 13.09765625 0.57609375 13.09765625 -3.50390625 13.09765625 C-3.6015625 3.8203125 -3.6015625 3.8203125 -3.50390625 1.09765625 C-2.50390625 0.09765625 -2.50390625 0.09765625 0 0 Z " fill="#3F3C39" transform="translate(122.50390625,685.90234375)"/>
<path d="M0 0 C0.33 0 0.66 0 1 0 C1.13057744 11.81311235 1.26097808 23.62622664 1.39115143 35.43934345 C1.45159818 40.92432564 1.51210641 46.40930714 1.57275391 51.89428711 C1.63125253 57.18512504 1.68959127 62.47596472 1.74781799 67.76680565 C1.77008846 69.78786469 1.79241707 71.80892309 1.81480408 73.82998085 C1.84608985 76.65528831 1.87717108 79.48059795 1.90820312 82.3059082 C1.91755386 83.14603958 1.9269046 83.98617096 1.9365387 84.85176086 C1.96987107 87.90134392 2 90.95020822 2 94 C1.34 93.67 0.68 93.34 0 93 C0 62.31 0 31.62 0 0 Z " fill="#2E2A27" transform="translate(908,475)"/>
<path d="M0 0 C3.3 0 6.6 0 10 0 C9.67 2.97 9.34 5.94 9 9 C8.67 9 8.34 9 8 9 C8 6.69 8 4.38 8 2 C5.69 2 3.38 2 1 2 C1 21.8 1 41.6 1 62 C0.67 62 0.34 62 0 62 C0 41.54 0 21.08 0 0 Z " fill="#181310" transform="translate(170,710)"/>
<path d="M0 0 C18.81 0 37.62 0 57 0 C57 0.33 57 0.66 57 1 C29.775 1.495 29.775 1.495 2 2 C1.67 2.66 1.34 3.32 1 4 C0.34 4 -0.32 4 -1 4 C-1.33 5.32 -1.66 6.64 -2 8 C-2.33 7.34 -2.66 6.68 -3 6 C-2.01 4.02 -1.02 2.04 0 0 Z " fill="#2D2926" transform="translate(487,425)"/>
<path d="M0 0 C2.31 0 4.62 0 7 0 C7 2.64 7 5.28 7 8 C4.69 8 2.38 8 0 8 C0 5.36 0 2.72 0 0 Z " fill="#1F1A17" transform="translate(122,689)"/>
<path d="M0 0 C3.49195341 5.80555217 3.86037534 14.19449371 2.390625 20.6953125 C1.5625 22.875 1.5625 22.875 0 26 C-0.66 26 -1.32 26 -2 26 C-1.67 24.865625 -1.34 23.73125 -1 22.5625 C0.6859212 15.17769025 0.15551533 7.5252141 0 0 Z " fill="#443F3D" transform="translate(301,732)"/>
<path d="M0 0 C1.37478516 0.01740234 1.37478516 0.01740234 2.77734375 0.03515625 C3.69644531 0.04417969 4.61554687 0.05320312 5.5625 0.0625 C6.27277344 0.07410156 6.98304688 0.08570313 7.71484375 0.09765625 C7.71484375 0.75765625 7.71484375 1.41765625 7.71484375 2.09765625 C4.74484375 2.09765625 1.77484375 2.09765625 -1.28515625 2.09765625 C-1.28515625 4.73765625 -1.28515625 7.37765625 -1.28515625 10.09765625 C-1.94515625 10.09765625 -2.60515625 10.09765625 -3.28515625 10.09765625 C-3.31204841 8.61858733 -3.33150246 7.13938142 -3.34765625 5.66015625 C-3.35925781 4.83644531 -3.37085938 4.01273438 -3.3828125 3.1640625 C-3.24381204 0.22281267 -2.9444484 0.12583113 0 0 Z " fill="#726F6D" transform="translate(660.28515625,708.90234375)"/>
<path d="M0 0 C3.96 0 7.92 0 12 0 C12 0.99 12 1.98 12 3 C8.7 2.67 5.4 2.34 2 2 C2 2.66 2 3.32 2 4 C2.66 4.33 3.32 4.66 4 5 C3.34 5.66 2.68 6.32 2 7 C1.34 4.69 0.68 2.38 0 0 Z " fill="#6E6B6A" transform="translate(344,709)"/>
<path d="M0 0 C2.0625 0.4375 2.0625 0.4375 4 1 C3.38511719 1.59748047 3.38511719 1.59748047 2.7578125 2.20703125 C2.21898437 2.73683594 1.68015625 3.26664063 1.125 3.8125 C0.59132813 4.33457031 0.05765625 4.85664062 -0.4921875 5.39453125 C-2.20776561 7.13259904 -2.20776561 7.13259904 -4 10 C-4.33 9.01 -4.66 8.02 -5 7 C-2 2 -2 2 0 0 Z " fill="#312D2B" transform="translate(437,741)"/>
<path d="M0 0 C0.66 0.33 1.32 0.66 2 1 C-0.31 3.64 -2.62 6.28 -5 9 C-5.99 8.67 -6.98 8.34 -8 8 C-3.375 2.25 -3.375 2.25 0 0 Z " fill="#312D2B" transform="translate(987,711)"/>
<path d="M0 0 C0.66 0.33 1.32 0.66 2 1 C-0.31 3.64 -2.62 6.28 -5 9 C-5.33 7.68 -5.66 6.36 -6 5 C-4.02 3.35 -2.04 1.7 0 0 Z " fill="#2F2B29" transform="translate(897,712)"/>
<path d="M0 0 C2.1015625 0.42578125 2.1015625 0.42578125 4 1 C2.8803014 2.00593243 1.7540588 3.0045849 0.625 4 C-0.00148438 4.556875 -0.62796875 5.11375 -1.2734375 5.6875 C-3 7 -3 7 -5 7 C-3.7251791 4.15616877 -2.54862922 1.86245982 0 0 Z " fill="#312D2B" transform="translate(442,712)"/>
<path d="M0 0 C0.66 0.33 1.32 0.66 2 1 C0.71480435 3.86697492 -0.57129254 5.97607712 -3 8 C-3.66 8 -4.32 8 -5 8 C-4.45773019 4.20411134 -2.79872437 2.52788007 0 0 Z " fill="#302C29" transform="translate(624,712)"/>
<path d="M0 0 C1.32 0.33 2.64 0.66 4 1 C0.535 3.97 0.535 3.97 -3 7 C-3 3.48283697 -2.17554415 2.62878252 0 0 Z " fill="#373432" transform="translate(266,714)"/>
<path d="M0 0 C-0.7425 0.5775 -1.485 1.155 -2.25 1.75 C-4.66087643 3.72253526 -6.84042701 5.76044282 -9 8 C-8.64005447 5.3364031 -8.28838998 3.41816548 -6.75 1.1875 C-4.41988723 -0.39364795 -2.75498245 -0.22337696 0 0 Z " fill="#3F3B39" transform="translate(822,719)"/>
<path d="M0 0 C4.83256305 0.41421969 6.82679218 2.46413986 10 6 C9.01 6 8.02 6 7 6 C7 5.34 7 4.68 7 4 C4.69 3.34 2.38 2.68 0 2 C0 1.34 0 0.68 0 0 Z " fill="#2E2A28" transform="translate(834,709)"/>
<path d="M0 0 C0.66 0 1.32 0 2 0 C1.54917531 1.46067199 1.08906463 2.91848032 0.625 4.375 C0.36976563 5.18710937 0.11453125 5.99921875 -0.1484375 6.8359375 C-1 9 -1 9 -3 11 C-2.53199289 6.94393835 -2.12046792 3.53411321 0 0 Z " fill="#393533" transform="translate(275,565)"/>
</svg>
